<svg viewBox="0 0 330 200" xmlns="http://www.w3.org/2000/svg"><g><g><g><g><g><line x1="61.953125" y1="178" x2="56.953125" y2="178" style="visibility: inherit;" fill="rgb(0, 0, 0)" stroke="rgb(204, 204, 204)" stroke-width="1px"></line><line x1="61.953125" y1="163.16666666666666" x2="56.953125" y2="163.16666666666666" style="visibility: inherit;" fill="rgb(0, 0, 0)" stroke="rgb(204, 204, 204)" stroke-width="1px"></line><line x1="61.953125" y1="148.33333333333331" x2="56.953125" y2="148.33333333333331" style="visibility: inherit;" fill="rgb(0, 0, 0)" stroke="rgb(204, 204, 204)" stroke-width="1px"></line><line x1="61.953125" y1="133.5" x2="56.953125" y2="133.5" style="visibility: inherit;" fill="rgb(0, 0, 0)" stroke="rgb(204, 204, 204)" stroke-width="1px"></line><line x1="61.953125" y1="118.66666666666666" x2="56.953125" y2="118.66666666666666" style="visibility: inherit;" fill="rgb(0, 0, 0)" stroke="rgb(204, 204, 204)" stroke-width="1px"></line><line x1="61.953125" y1="103.83333333333334" x2="56.953125" y2="103.83333333333334" style="visibility: inherit;" fill="rgb(0, 0, 0)" stroke="rgb(204, 204, 204)" stroke-width="1px"></line><line x1="61.953125" y1="88.99999999999999" x2="56.953125" y2="88.99999999999999" style="visibility: inherit;" fill="rgb(0, 0, 0)" stroke="rgb(204, 204, 204)" stroke-width="1px"></line><line x1="61.953125" y1="74.16666666666666" x2="56.953125" y2="74.16666666666666" style="visibility: inherit;" fill="rgb(0, 0, 0)" stroke="rgb(204, 204, 204)" stroke-width="1px"></line><line x1="61.953125" y1="59.33333333333332" x2="56.953125" y2="59.33333333333332" style="visibility: inherit;" fill="rgb(0, 0, 0)" stroke="rgb(204, 204, 204)" stroke-width="1px"></line><line x1="61.953125" y1="44.5" x2="56.953125" y2="44.5" style="visibility: inherit;" fill="rgb(0, 0, 0)" stroke="rgb(204, 204, 204)" stroke-width="1px"></line><line x1="61.953125" y1="29.66666666666664" x2="56.953125" y2="29.66666666666664" style="visibility: inherit;" fill="rgb(0, 0, 0)" stroke="rgb(204, 204, 204)" stroke-width="1px"></line><line x1="61.953125" y1="14.8333333333333" x2="56.953125" y2="14.8333333333333" style="visibility: inherit;" fill="rgb(0, 0, 0)" stroke="rgb(204, 204, 204)" stroke-width="1px"></line><line x1="61.953125" y1="0" x2="56.953125" y2="0" style="visibility: inherit;" fill="rgb(0, 0, 0)" stroke="rgb(204, 204, 204)" stroke-width="1px"></line></g><g transform="translate(51.953125, 0)"><text x="0" y="178" dx="0em" dy="0.3em" style="text-anchor: end; visibility: hidden; font-family: Roboto, sans-serif; font-size: 12px; font-weight: 200;" fill="rgb(50, 49, 63)" stroke="none" stroke-width="1px">0.012</text><text x="0" y="163.16666666666666" dx="0em" dy="0.3em" style="text-anchor: end; visibility: inherit; font-family: Roboto, sans-serif; font-size: 12px; font-weight: 200;" fill="rgb(50, 49, 63)" stroke="none" stroke-width="1px">0.014</text><text x="0" y="148.33333333333331" dx="0em" dy="0.3em" style="text-anchor: end; visibility: hidden; font-family: Roboto, sans-serif; font-size: 12px; font-weight: 200;" fill="rgb(50, 49, 63)" stroke="none" stroke-width="1px">0.016</text><text x="0" y="133.5" dx="0em" dy="0.3em" style="text-anchor: end; visibility: inherit; font-family: Roboto, sans-serif; font-size: 12px; font-weight: 200;" fill="rgb(50, 49, 63)" stroke="none" stroke-width="1px">0.018</text><text x="0" y="118.66666666666666" dx="0em" dy="0.3em" style="text-anchor: end; visibility: hidden; font-family: Roboto, sans-serif; font-size: 12px; font-weight: 200;" fill="rgb(50, 49, 63)" stroke="none" stroke-width="1px">0.02</text><text x="0" y="103.83333333333334" dx="0em" dy="0.3em" style="text-anchor: end; visibility: inherit; font-family: Roboto, sans-serif; font-size: 12px; font-weight: 200;" fill="rgb(50, 49, 63)" stroke="none" stroke-width="1px">0.022</text><text x="0" y="88.99999999999999" dx="0em" dy="0.3em" style="text-anchor: end; visibility: hidden; font-family: Roboto, sans-serif; font-size: 12px; font-weight: 200;" fill="rgb(50, 49, 63)" stroke="none" stroke-width="1px">0.024</text><text x="0" y="74.16666666666666" dx="0em" dy="0.3em" style="text-anchor: end; visibility: inherit; font-family: Roboto, sans-serif; font-size: 12px; font-weight: 200;" fill="rgb(50, 49, 63)" stroke="none" stroke-width="1px">0.026</text><text x="0" y="59.33333333333332" dx="0em" dy="0.3em" style="text-anchor: end; visibility: hidden; font-family: Roboto, sans-serif; font-size: 12px; font-weight: 200;" fill="rgb(50, 49, 63)" stroke="none" stroke-width="1px">0.028</text><text x="0" y="44.5" dx="0em" dy="0.3em" style="text-anchor: end; visibility: inherit; font-family: Roboto, sans-serif; font-size: 12px; font-weight: 200;" fill="rgb(50, 49, 63)" stroke="none" stroke-width="1px">0.03</text><text x="0" y="29.66666666666664" dx="0em" dy="0.3em" style="text-anchor: end; visibility: hidden; font-family: Roboto, sans-serif; font-size: 12px; font-weight: 200;" fill="rgb(50, 49, 63)" stroke="none" stroke-width="1px">0.032</text><text x="0" y="14.8333333333333" dx="0em" dy="0.3em" style="text-anchor: end; visibility: inherit; font-family: Roboto, sans-serif; font-size: 12px; font-weight: 200;" fill="rgb(50, 49, 63)" stroke="none" stroke-width="1px">0.034</text><text x="0" y="0" dx="0em" dy="0.3em" style="text-anchor: end; visibility: hidden; font-family: Roboto, sans-serif; font-size: 12px; font-weight: 200;" fill="rgb(50, 49, 63)" stroke="none" stroke-width="1px">0.036</text></g><line x1="61.953125" y1="0" x2="61.953125" y2="178" fill="rgb(0, 0, 0)" stroke="rgb(204, 204, 204)" stroke-width="1px"></line></g></g><g transform="translate(61, 0)" clip-path="url(#clip_0)"><clipPath id="clip_0"><rect width="268" height="178"></rect></clipPath><g><g><g><line x1="0" y1="0" x2="0" y2="178" fill="rgb(0, 0, 0)" stroke="rgb(60, 60, 60)" stroke-width="1px" opacity="0.25"></line><line x1="19.146205357142858" y1="0" x2="19.146205357142858" y2="178" fill="rgb(0, 0, 0)" stroke="rgb(60, 60, 60)" stroke-width="1px" opacity="0.25"></line><line x1="38.292410714285715" y1="0" x2="38.292410714285715" y2="178" fill="rgb(0, 0, 0)" stroke="rgb(60, 60, 60)" stroke-width="1px" opacity="0.25"></line><line x1="57.43861607142857" y1="0" x2="57.43861607142857" y2="178" fill="rgb(0, 0, 0)" stroke="rgb(60, 60, 60)" stroke-width="1px" opacity="0.25"></line><line x1="76.58482142857143" y1="0" x2="76.58482142857143" y2="178" fill="rgb(0, 0, 0)" stroke="rgb(60, 60, 60)" stroke-width="1px" opacity="0.25"></line><line x1="95.73102678571429" y1="0" x2="95.73102678571429" y2="178" fill="rgb(0, 0, 0)" stroke="rgb(60, 60, 60)" stroke-width="1px" opacity="0.25"></line><line x1="114.87723214285714" y1="0" x2="114.87723214285714" y2="178" fill="rgb(0, 0, 0)" stroke="rgb(60, 60, 60)" stroke-width="1px" opacity="0.25"></line><line x1="134.0234375" y1="0" x2="134.0234375" y2="178" fill="rgb(0, 0, 0)" stroke="rgb(60, 60, 60)" stroke-width="1px" opacity="0.25"></line><line x1="153.16964285714286" y1="0" x2="153.16964285714286" y2="178" fill="rgb(0, 0, 0)" stroke="rgb(60, 60, 60)" stroke-width="1px" opacity="0.25"></line><line x1="172.31584821428572" y1="0" x2="172.31584821428572" y2="178" fill="rgb(0, 0, 0)" stroke="rgb(60, 60, 60)" stroke-width="1px" opacity="0.25"></line><line x1="191.46205357142858" y1="0" x2="191.46205357142858" y2="178" fill="rgb(0, 0, 0)" stroke="rgb(60, 60, 60)" stroke-width="1px" opacity="0.25"></line><line x1="210.60825892857142" y1="0" x2="210.60825892857142" y2="178" fill="rgb(0, 0, 0)" stroke="rgb(60, 60, 60)" stroke-width="1px" opacity="0.25"></line><line x1="229.75446428571428" y1="0" x2="229.75446428571428" y2="178" fill="rgb(0, 0, 0)" stroke="rgb(60, 60, 60)" stroke-width="1px" opacity="0.25"></line><line x1="248.90066964285714" y1="0" x2="248.90066964285714" y2="178" fill="rgb(0, 0, 0)" stroke="rgb(60, 60, 60)" stroke-width="1px" opacity="0.25"></line><line x1="268.046875" y1="0" x2="268.046875" y2="178" fill="rgb(0, 0, 0)" stroke="rgb(60, 60, 60)" stroke-width="1px" opacity="0.25"></line></g><g><line x1="0" y1="178" x2="268.046875" y2="178" fill="rgb(0, 0, 0)" stroke="rgb(60, 60, 60)" stroke-width="1px" opacity="0.25"></line><line x1="0" y1="163.16666666666666" x2="268.046875" y2="163.16666666666666" fill="rgb(0, 0, 0)" stroke="rgb(60, 60, 60)" stroke-width="1px" opacity="0.25"></line><line x1="0" y1="148.33333333333331" x2="268.046875" y2="148.33333333333331" fill="rgb(0, 0, 0)" stroke="rgb(60, 60, 60)" stroke-width="1px" opacity="0.25"></line><line x1="0" y1="133.5" x2="268.046875" y2="133.5" fill="rgb(0, 0, 0)" stroke="rgb(60, 60, 60)" stroke-width="1px" opacity="0.25"></line><line x1="0" y1="118.66666666666666" x2="268.046875" y2="118.66666666666666" fill="rgb(0, 0, 0)" stroke="rgb(60, 60, 60)" stroke-width="1px" opacity="0.25"></line><line x1="0" y1="103.83333333333334" x2="268.046875" y2="103.83333333333334" fill="rgb(0, 0, 0)" stroke="rgb(60, 60, 60)" stroke-width="1px" opacity="0.25"></line><line x1="0" y1="88.99999999999999" x2="268.046875" y2="88.99999999999999" fill="rgb(0, 0, 0)" stroke="rgb(60, 60, 60)" stroke-width="1px" opacity="0.25"></line><line x1="0" y1="74.16666666666666" x2="268.046875" y2="74.16666666666666" fill="rgb(0, 0, 0)" stroke="rgb(60, 60, 60)" stroke-width="1px" opacity="0.25"></line><line x1="0" y1="59.33333333333332" x2="268.046875" y2="59.33333333333332" fill="rgb(0, 0, 0)" stroke="rgb(60, 60, 60)" stroke-width="1px" opacity="0.25"></line><line x1="0" y1="44.5" x2="268.046875" y2="44.5" fill="rgb(0, 0, 0)" stroke="rgb(60, 60, 60)" stroke-width="1px" opacity="0.25"></line><line x1="0" y1="29.66666666666664" x2="268.046875" y2="29.66666666666664" fill="rgb(0, 0, 0)" stroke="rgb(60, 60, 60)" stroke-width="1px" opacity="0.25"></line><line x1="0" y1="14.8333333333333" x2="268.046875" y2="14.8333333333333" fill="rgb(0, 0, 0)" stroke="rgb(60, 60, 60)" stroke-width="1px" opacity="0.25"></line><line x1="0" y1="0" x2="268.046875" y2="0" fill="rgb(0, 0, 0)" stroke="rgb(60, 60, 60)" stroke-width="1px" opacity="0.25"></line></g></g></g><g><g><line x1="0" y1="267" x2="268.046875" y2="267" fill="rgb(0, 0, 0)" stroke="rgb(153, 153, 153)" stroke-width="1.5px"></line></g></g><g><g><line x1="19.146205357142858" y1="0" x2="19.146205357142858" y2="178" fill="rgb(0, 0, 0)" stroke="rgb(153, 153, 153)" stroke-width="1.5px"></line></g></g><g><g><g><g><g><path stroke="rgb(255, 112, 67)" stroke-width="2px" d="M19.146205357142858,89.97758990898728L20.103515625,97.38041481682865L21.060825892857142,98.12459990103137L22.018136160714285,95.7677941445322L22.975446428571427,93.87013016033595L23.932756696428573,91.91459903386456L24.890066964285715,87.88577916884356L25.847377232142858,83.66397678141666L26.8046875,79.6425617982805L27.761997767857146,72.59377983429958L28.719308035714285,65.30217891050887L29.676618303571427,60.57849812176571L30.63392857142857,55.63413124690344L31.591238839285715,52.70841999264075L32.548549107142854,46.57030231684658L33.505859375,38.07675184001939L34.46316964285714,32.552927826257864L35.420479910714285,28.18189439237269L36.37779017857142,22.469604622409104L37.33510044642857,18.653630955456702L38.292410714285715,17.45846693273886L39.24972098214286,14.7735637124043L40.20703125,12.841224605794126L41.164341517857146,13.385424393378138L42.121651785714285,14.045108950769237L43.07896205357143,13.531744293911062L44.03627232142857,13.268560746611284L44.99358258928571,12.649686795149671L45.950892857142854,11.583851572174595L46.908203125,12.211602359411115L47.865513392857146,13.713538252317258L48.822823660714285,15.330326131059739L49.78013392857143,16.679181154541897L50.73744419642857,15.50014498326558L51.694754464285715,17.327559956344693L52.652064732142854,18.422621371522148L53.609375,18.87736138914257L54.566685267857146,19.285476235695953L55.52399553571429,19.340709806817713L56.48130580357143,20.0083405013205L57.43861607142857,20.936031495584768L58.395926339285715,21.9297788965899L59.353236607142854,23.468552259266616L60.310546875,24.967715503207742L61.26785714285714,26.41762180876209L62.225167410714285,26.556480343360505L63.18247767857143,28.927006270975152L64.13978794642857,29.691208543982214L65.09709821428571,30.1384715307279L66.05440848214286,31.597670124438274L67.01171875,33.46127136561533L67.96902901785714,35.14015932730466L68.92633928571428,36.92097438885874L69.88364955357143,38.09302425052491L70.84095982142857,39.67854519948639L71.79827008928571,40.18633353450633L72.75558035714285,41.14372173502283L73.712890625,42.11445631421921L74.67020089285714,43.10539014586977L75.62751116071429,43.92385207348705L76.58482142857143,45.3410041299481L77.54213169642858,45.833115411214585L78.49944196428572,46.64813905294041L79.45675223214286,48.21904422197376L80.4140625,49.996082849726115L81.37137276785714,50.44820003288132L82.32868303571429,50.75813694168322L83.28599330357143,51.95759763750455L84.24330357142857,52.95171077661693L85.20061383928571,53.71211918053484L86.15792410714286,54.660082191271734L87.115234375,56.67225707214128L88.07254464285714,57.05939669909116L89.02985491071428,57.76273550766899L89.98716517857142,59.24863791400198L90.94447544642857,59.87392222227689L91.90178571428571,60.77200600271849L92.85909598214286,62.63771505483154L93.81640625,63.29041245947307L94.77371651785715,64.39194494086559L95.73102678571429,65.6024144655989L96.68833705357143,66.24976599003938L97.64564732142857,66.97265657027215L98.60295758928572,68.09032567553305L99.56026785714286,68.63819203669478L100.517578125,69.55366722335762L101.47488839285714,70.89190523036068L102.43219866071428,71.6774550352754L103.38950892857143,71.5808281029628L104.34681919642857,71.81899097647597L105.30412946428571,73.36579566016515L106.26143973214285,73.78394496409676L107.21875,74.73233638775855L108.17606026785714,75.88521219184759L109.13337053571429,76.84859195964201L110.09068080357143,77.61347885747264L111.04799107142858,78.9266047934487L112.00530133928572,78.97799913225136L112.96261160714286,80.16105351688138L113.919921875,80.72819387941122L114.87723214285714,81.65252701366417L115.83454241071429,82.34730821910215L116.79185267857143,83.06394005460933L117.74916294642857,83.55149818576052L118.70647321428571,84.78127278555694L119.66378348214286,85.22312890880215L120.62109375,85.72529747860597L121.57840401785714,86.41232988051678L122.53571428571428,87.4140461604034L123.49302455357142,88.15137158497828L124.45033482142857,89.15144034074702L125.40764508928571,89.81550098125113L126.36495535714286,90.60022238202839L127.322265625,91.3281376149119L128.27957589285714,92.04080006500688L129.23688616071428,92.55183324340817L130.19419642857142,93.60426593608219L131.15150669642856,94.13533164854799L132.10881696428572,94.60727686262047L133.06612723214286,95.31728206132611L134.0234375,95.56060133449479L134.98074776785714,96.16068374459012L135.93805803571428,97.23038093149222L136.89536830357142,98.14409631498962L137.85267857142856,98.45851399386419L138.80998883928572,98.25080199949971L139.76729910714286,98.58844319760914L140.724609375,98.92978132904285L141.68191964285714,99.62307698938771L142.63922991071428,100.14141484782101L143.59654017857142,100.85676730500283L144.55385044642856,101.92297085951165L145.5111607142857,102.77047164004816L146.46847098214283,102.65533573092064L147.42578125,103.97275645526933L148.38309151785714,103.98435746746472L149.34040178571428,105.40948097036978L150.29771205357142,105.72604769204611L151.25502232142858,106.68500223863019L152.21233258928572,107.68632214858899L153.16964285714286,108.18383979940143L154.126953125,108.26576267209485L155.08426339285717,108.83703515785703L156.0415736607143,109.61127791787332L156.99888392857144,110.19170817876181L157.95619419642858,111.44910782800437L158.91350446428572,111.56553098104281L159.87081473214286,112.57771273063832L160.828125,113.36573720387594L161.78543526785714,113.52660167751198L162.74274553571428,114.2874979321692L163.70005580357144,115.20265780156448L164.65736607142858,116.14861906932556L165.61467633928572,117.13335052836007L166.57198660714286,117.56080597704084L167.529296875,117.60567624208812L168.48660714285714,118.69489851676124L169.44391741071428,119.18285934372665L170.40122767857142,119.69351749838138L171.35853794642856,120.60782768209002L172.31584821428572,121.49098692819814L173.27315848214286,122.19511654863437L174.23046875,122.4071930810168L175.18777901785714,122.96008094707749L176.14508928571428,123.7256076432823L177.10239955357142,124.6594250574707L178.05970982142856,125.33713833436317L179.0170200892857,125.92879110722907L179.97433035714283,126.08522258302014L180.931640625,126.36678049092087L181.88895089285714,126.97881838949976L182.84626116071428,127.69674583158837L183.80357142857142,128.77027857184282L184.76088169642858,129.66471181524318L185.71819196428572,130.57349510431575L186.67550223214286,131.39677394930774L187.6328125,131.89274061186856L188.59012276785717,132.21997886514535L189.5474330357143,133.11946029340814L190.50474330357144,133.25796783572875L191.46205357142858,133.57806417260653L192.41936383928572,134.20879485205919L193.37667410714286,134.6027598863022L194.333984375,134.8239786698309L195.29129464285714,135.49743226565204L196.24860491071428,136.08625426965804L197.20591517857144,136.7098419884274L198.16322544642858,137.0119390892568L199.12053571428572,137.7542542926842L200.07784598214286,138.1423764484914L201.03515625,138.52533189123199L201.99246651785714,139.19468366872985L202.94977678571428,139.81434643764354L203.90708705357142,139.80977139086562L204.86439732142856,140.3711939259863L205.82170758928572,140.810875492921L206.77901785714286,141.32360838948884L207.736328125,141.2858560456432L208.69363839285714,141.5345232616563L209.65094866071428,141.75540887159093L210.60825892857142,142.43048284191323L211.56556919642856,143.10773311223636L212.5228794642857,143.23697657628495L213.48018973214283,143.916213756188L214.4375,144.05557427222953L215.39481026785714,144.32097673698166L216.35212053571428,144.56673659410433L217.30943080357142,145.41627008529696L218.26674107142858,146.0457011267994L219.22405133928572,146.31275928696695L220.18136160714286,146.3393760028057L221.138671875,147.03573479347796L222.09598214285717,147.0888906445105L223.0532924107143,147.30328685467418L224.01060267857144,147.5061512879823L224.96791294642858,147.71624247154506L225.92522321428572,148.23356193717518L226.88253348214286,148.81769614858732L227.83984375,149.50061416997787L228.79715401785714,150.02235504088404L229.75446428571428,150.42113917473395L230.71177455357144,150.9199593482324L231.66908482142858,151.00612286775527L232.62639508928572,151.5012969949305L233.58370535714286,151.84657393068474L234.541015625,152.16424982242106L235.49832589285714,152.42597287291454L236.45563616071428,152.8477122072137L237.41294642857142,153.18074513889778L238.37025669642856,153.45477889684594L239.32756696428572,153.82802094544465L240.28487723214286,154.29761456063974L241.2421875,154.6919343728701L242.19949776785714,155.07149925634928L243.15680803571428,155.4259352151998L244.11411830357142,155.49239290398992L245.07142857142856,155.4987940563225L246.0287388392857,155.47537931053478L246.98604910714283,155.5817445106695L247.943359375,155.6831924427213L248.90066964285714,155.93370353036315L249.85797991071428,155.79036017326263L250.81529017857142,155.76652874746378L251.77260044642858,155.9623940786098L252.72991071428572,155.67252552431765L253.68722098214286,155.41148702953856L254.64453125,155.70029495198813L255.60184151785717,156.16070258429218L256.5591517857143,156.48167572709065L257.51646205357144,156.85130697843243" style="fill: none;" fill="none"></path></g></g></g></g><g opacity="0.2"><g><g><g><path stroke="rgb(255, 112, 67)" stroke-width="2px" d="M19.146205357142858,89.97758990898728L20.103515625,104.04295723388591L21.060825892857142,99.3971563950181L22.018136160714285,90.01954490443069L22.975446428571427,87.99667036285001L23.932756696428573,84.70731306945282L24.890066964285715,70.89612090463439L25.847377232142858,63.84123024344442L26.8046875,59.02961254244048L27.761997767857146,33.73232515652973L28.719308035714285,22.55958691984413L29.676618303571427,31.406440779566744L30.63392857142857,23.702746575077363L31.591238839285715,33.07010761896768L32.548549107142854,3.965083206693305L33.505859375,-22.62648194283251L37.33510044642857,-11.050798922777215L38.292410714285715,8.009727120399456L39.24972098214286,-6.74655070404213L40.20703125,-2.837207160890142L41.164341517857146,17.84913366784651L42.121651785714285,19.508683751026762L43.07896205357143,9.243151490886993L44.03627232142857,11.052949361503105L44.99358258928571,7.403707449634856L45.950892857142854,2.4933566724260516L46.908203125,17.595248614748307L47.865513392857146,26.657942069073506L48.822823660714285,29.32626320173342L49.78013392857143,28.402037615577353L50.73744419642857,5.216742873191814L51.694754464285715,33.31686432907978L52.652064732142854,28.03147429724533L53.609375,22.87782046447195L54.566685267857146,22.884037042657507L55.52399553571429,19.8287408252557L56.48130580357143,25.918335040410348L57.43861607142857,29.161841616034486L58.395926339285715,30.754528947174528L59.353236607142854,37.15170563633242L60.310546875,38.31479978561399L61.26785714285714,39.340231264630944L62.225167410714285,27.79529958466686L63.18247767857143,50.09415172164638L64.13978794642857,36.52040521427987L65.09709821428571,34.13822626819212L66.05440848214286,44.6552536524832L67.01171875,50.147241299351045L67.96902901785714,50.18006483217079L68.92633928571428,52.881402902305105L69.88364955357143,48.60184140627582L70.84095982142857,53.89998233069975L71.79827008928571,44.742520595590264L72.75558035714285,49.73661558826763L73.712890625,50.829531477143355L74.67020089285714,52.0040088718136L75.62751116071429,51.27530157690246L76.58482142857143,58.07245290651915L77.54213169642858,50.254953877379485L78.49944196428572,53.97267485161621L79.45675223214286,62.3386694813768L80.4140625,65.97057404741643L81.37137276785714,54.5129369397958L82.32868303571429,53.54490519935885L83.28599330357143,62.74346542358396L84.24330357142857,61.89180802678067L85.20061383928571,60.55103025833765L86.15792410714286,63.1864035266141L87.115234375,74.77161863322058L88.07254464285714,60.54188498109577L89.02985491071428,64.08989337086676L89.98716517857142,72.61626190319656L90.94447544642857,65.49939886480568L91.90178571428571,68.85206855336824L92.85909598214286,79.42406430343786L93.81640625,69.16310468191901L94.77371651785715,74.30333070581156L95.73102678571429,76.49426007767516L96.68833705357143,72.07478412861624L97.64564732142857,73.477520459642L98.60295758928572,78.14774554346997L99.56026785714286,73.56828250115115L100.517578125,77.79188097889224L101.47488839285714,82.93464889253178L102.43219866071428,78.74666450048485L103.38950892857143,70.71126749863225L104.34681919642857,73.96227541193365L105.30412946428571,87.28597733005881L106.26143973214285,77.54703068609038L107.21875,83.2673325277865L108.17606026785714,86.26051822180548L109.13337053571429,85.51857652266818L110.09068080357143,84.49715128292638L111.04799107142858,90.7442597746849L112.00530133928572,79.44053132832049L112.96261160714286,90.80819382766882L113.919921875,85.83230650176603L114.87723214285714,89.97130425771076L115.83454241071429,88.60018958772221L116.79185267857143,89.51348781088987L117.74916294642857,87.9394363996883L118.70647321428571,95.84905130291978L119.66378348214286,89.19977164641023L120.62109375,90.24475081016618L121.57840401785714,92.59554294372597L122.53571428571428,96.42938959846893L123.49302455357142,94.78723211959004L124.45033482142857,98.15197578445077L125.40764508928571,95.79199692979455L126.36495535714286,97.66266200815636L127.322265625,97.87933047985035L128.27957589285714,98.45472314208746L129.23688616071428,97.15110669657588L130.19419642857142,103.07611355061331L131.15150669642856,98.91490188861886L132.10881696428572,98.85476685563722L133.06612723214286,101.70730592186251L134.0234375,97.75046772137284L134.98074776785714,101.56140973915655L135.93805803571428,106.85763043165207L136.89536830357142,106.36751540750265L137.85267857142856,101.28826710830131L138.80998883928572,96.38139761487642L139.76729910714286,101.62720876559615L140.724609375,102.0018197670579L141.68191964285714,105.86272925883532L142.63922991071428,104.80644973739982L143.59654017857142,107.29493217046061L144.55385044642856,111.5187931259473L145.5111607142857,110.39797170832753L146.46847098214283,101.61911339933673L147.42578125,115.82953421523172L148.38309151785714,104.0887665078044L149.34040178571428,118.23558482155204L150.29771205357142,108.57514665275812L151.25502232142858,115.31558897470433L152.21233258928572,116.69819740702707L153.16964285714286,112.66149689878026L154.126953125,109.00306826581556L155.08426339285717,113.97848589469987L156.0415736607143,116.5794607636829L156.99888392857144,115.4155791811645L157.95619419642858,122.7657020476957L158.91350446428572,112.61333913976947L159.87081473214286,121.68734676639238L160.828125,120.45795626441637L161.78543526785714,114.97438172002632L162.74274553571428,121.13556328664222L163.70005580357144,123.43909561137357L164.65736607142858,124.66226953516403L165.61467633928572,125.99593277523914L166.57198660714286,121.40790466964245L167.529296875,118.00950859487057L168.48660714285714,128.4978982756535L169.44391741071428,123.57450649887323L170.40122767857142,124.28944061944881L171.35853794642856,128.8366188990573L172.31584821428572,129.4394197637836L173.27315848214286,128.53228286032873L174.23046875,124.31588179866472L175.18777901785714,127.93607156847912L176.14508928571428,130.61534769336382L177.10239955357142,133.06378154829144L178.05970982142856,131.43655767167607L179.0170200892857,131.25366594145694L179.97433035714283,127.49310583621264L180.931640625,128.90080161516863L181.88895089285714,132.48715938503543L182.84626116071428,134.15809271360436L183.80357142857142,138.43207310388485L184.76088169642858,137.71461090818048L185.71819196428572,138.75254461665946L186.67550223214286,138.8062834814191L187.6328125,136.35644053543606L188.59012276785717,135.16512312119204L189.5474330357143,141.21479308977723L190.50474330357144,134.50453570857644L191.46205357142858,136.45893118778864L192.41936383928572,139.88537093748647L193.37667410714286,138.1484451778233L194.333984375,136.81494771316648L195.29129464285714,141.55851460496584L196.24860491071428,141.38565228755274L197.20591517857144,142.32213144004345L198.16322544642858,139.73081298917532L199.12053571428572,144.43509110684195L200.07784598214286,141.63547584290305L201.03515625,141.97193086892366L201.99246651785714,145.21884965524077L202.94977678571428,145.39131134872633L203.90708705357142,139.76859596992531L204.86439732142856,145.4239967353642L205.82170758928572,144.76800959060589L206.77901785714286,145.93820445363718L207.736328125,140.946084951361L208.69363839285714,143.77252820382515L209.65094866071428,143.74337935944396L210.60825892857142,148.5061485705276L211.56556919642856,149.20298554127413L212.5228794642857,144.4001677520573L213.48018973214283,150.0293483721713L214.4375,145.30981891602278L215.39481026785714,146.70959891875583L216.35212053571428,146.77857530737916L217.30943080357142,153.06207150345045L218.26674107142858,151.710580498601L219.22405133928572,148.71628272781768L220.18136160714286,146.5789264452954L221.138671875,153.30296390814084L222.09598214285717,147.56729330370823L223.0532924107143,149.2328527458012L224.01060267857144,149.3319311874608L224.96791294642858,149.60706312333542L225.92522321428572,152.8894371272375L226.88253348214286,154.07490405067801L227.83984375,155.64687636184195L228.79715401785714,154.7180228785922L229.75446428571428,154.01019637907544L230.71177455357144,155.40934090937176L231.66908482142858,151.78159454340735L232.62639508928572,155.95786413922906L233.58370535714286,154.95406635229784L234.541015625,155.02333284790316L235.49832589285714,154.78148032724857L236.45563616071428,156.64336621575058L237.41294642857142,156.17804152394334L238.37025669642856,155.92108271829784L239.32756696428572,157.1871993827323L240.28487723214286,158.52395709728202L241.2421875,158.24081268285713L242.19949776785714,158.4875832075874L243.15680803571428,158.61585884479186L244.11411830357142,156.09051210309067L245.07142857142856,155.5564044273148L246.0287388392857,155.26464659844834L246.98604910714283,156.53903131186962L247.943359375,156.59622383117676L248.90066964285714,158.18830331911644L249.85797991071428,154.50026995937029L250.81529017857142,155.5520459152758L251.77260044642858,157.72518205891052L252.72991071428572,153.06370853570598L253.68722098214286,153.06214057654142L254.64453125,158.29956625401974L255.60184151785717,160.30437127500772L256.5591517857143,159.370434012264L257.51646205357144,160.17798824049532" style="fill: none;" fill="none"></path></g></g></g></g></g></g><g transform="translate(61, 178)" clip-path="url(#clip_1)"><clipPath id="clip_1"><rect width="268" height="22"></rect></clipPath><g><g><line x1="0" y1="0" x2="0" y2="5" style="visibility: inherit;" fill="rgb(0, 0, 0)" stroke="rgb(204, 204, 204)" stroke-width="1px"></line><line x1="19.146205357142858" y1="0" x2="19.146205357142858" y2="5" style="visibility: inherit;" fill="rgb(0, 0, 0)" stroke="rgb(204, 204, 204)" stroke-width="1px"></line><line x1="38.292410714285715" y1="0" x2="38.292410714285715" y2="5" style="visibility: inherit;" fill="rgb(0, 0, 0)" stroke="rgb(204, 204, 204)" stroke-width="1px"></line><line x1="57.43861607142857" y1="0" x2="57.43861607142857" y2="5" style="visibility: inherit;" fill="rgb(0, 0, 0)" stroke="rgb(204, 204, 204)" stroke-width="1px"></line><line x1="76.58482142857143" y1="0" x2="76.58482142857143" y2="5" style="visibility: inherit;" fill="rgb(0, 0, 0)" stroke="rgb(204, 204, 204)" stroke-width="1px"></line><line x1="95.73102678571429" y1="0" x2="95.73102678571429" y2="5" style="visibility: inherit;" fill="rgb(0, 0, 0)" stroke="rgb(204, 204, 204)" stroke-width="1px"></line><line x1="114.87723214285714" y1="0" x2="114.87723214285714" y2="5" style="visibility: inherit;" fill="rgb(0, 0, 0)" stroke="rgb(204, 204, 204)" stroke-width="1px"></line><line x1="134.0234375" y1="0" x2="134.0234375" y2="5" style="visibility: inherit;" fill="rgb(0, 0, 0)" stroke="rgb(204, 204, 204)" stroke-width="1px"></line><line x1="153.16964285714286" y1="0" x2="153.16964285714286" y2="5" style="visibility: inherit;" fill="rgb(0, 0, 0)" stroke="rgb(204, 204, 204)" stroke-width="1px"></line><line x1="172.31584821428572" y1="0" x2="172.31584821428572" y2="5" style="visibility: inherit;" fill="rgb(0, 0, 0)" stroke="rgb(204, 204, 204)" stroke-width="1px"></line><line x1="191.46205357142858" y1="0" x2="191.46205357142858" y2="5" style="visibility: inherit;" fill="rgb(0, 0, 0)" stroke="rgb(204, 204, 204)" stroke-width="1px"></line><line x1="210.60825892857142" y1="0" x2="210.60825892857142" y2="5" style="visibility: inherit;" fill="rgb(0, 0, 0)" stroke="rgb(204, 204, 204)" stroke-width="1px"></line><line x1="229.75446428571428" y1="0" x2="229.75446428571428" y2="5" style="visibility: inherit;" fill="rgb(0, 0, 0)" stroke="rgb(204, 204, 204)" stroke-width="1px"></line><line x1="248.90066964285714" y1="0" x2="248.90066964285714" y2="5" style="visibility: inherit;" fill="rgb(0, 0, 0)" stroke="rgb(204, 204, 204)" stroke-width="1px"></line><line x1="268.046875" y1="0" x2="268.046875" y2="5" style="visibility: inherit;" fill="rgb(0, 0, 0)" stroke="rgb(204, 204, 204)" stroke-width="1px"></line></g><g transform="translate(0, 8)"><text x="0" y="0" dx="0em" dy="0.95em" style="text-anchor: middle; visibility: hidden; font-family: Roboto, sans-serif; font-size: 12px; font-weight: 200;" fill="rgb(50, 49, 63)" stroke="none" stroke-width="1px">-20</text><text x="19.146205357142858" y="0" dx="0em" dy="0.95em" style="text-anchor: middle; visibility: inherit; font-family: Roboto, sans-serif; font-size: 12px; font-weight: 200;" fill="rgb(50, 49, 63)" stroke="none" stroke-width="1px">0</text><text x="38.292410714285715" y="0" dx="0em" dy="0.95em" style="text-anchor: middle; visibility: hidden; font-family: Roboto, sans-serif; font-size: 12px; font-weight: 200;" fill="rgb(50, 49, 63)" stroke="none" stroke-width="1px">20</text><text x="57.43861607142857" y="0" dx="0em" dy="0.95em" style="text-anchor: middle; visibility: inherit; font-family: Roboto, sans-serif; font-size: 12px; font-weight: 200;" fill="rgb(50, 49, 63)" stroke="none" stroke-width="1px">40</text><text x="76.58482142857143" y="0" dx="0em" dy="0.95em" style="text-anchor: middle; visibility: hidden; font-family: Roboto, sans-serif; font-size: 12px; font-weight: 200;" fill="rgb(50, 49, 63)" stroke="none" stroke-width="1px">60</text><text x="95.73102678571429" y="0" dx="0em" dy="0.95em" style="text-anchor: middle; visibility: inherit; font-family: Roboto, sans-serif; font-size: 12px; font-weight: 200;" fill="rgb(50, 49, 63)" stroke="none" stroke-width="1px">80</text><text x="114.87723214285714" y="0" dx="0em" dy="0.95em" style="text-anchor: middle; visibility: hidden; font-family: Roboto, sans-serif; font-size: 12px; font-weight: 200;" fill="rgb(50, 49, 63)" stroke="none" stroke-width="1px">100</text><text x="134.0234375" y="0" dx="0em" dy="0.95em" style="text-anchor: middle; visibility: inherit; font-family: Roboto, sans-serif; font-size: 12px; font-weight: 200;" fill="rgb(50, 49, 63)" stroke="none" stroke-width="1px">120</text><text x="153.16964285714286" y="0" dx="0em" dy="0.95em" style="text-anchor: middle; visibility: hidden; font-family: Roboto, sans-serif; font-size: 12px; font-weight: 200;" fill="rgb(50, 49, 63)" stroke="none" stroke-width="1px">140</text><text x="172.31584821428572" y="0" dx="0em" dy="0.95em" style="text-anchor: middle; visibility: inherit; font-family: Roboto, sans-serif; font-size: 12px; font-weight: 200;" fill="rgb(50, 49, 63)" stroke="none" stroke-width="1px">160</text><text x="191.46205357142858" y="0" dx="0em" dy="0.95em" style="text-anchor: middle; visibility: hidden; font-family: Roboto, sans-serif; font-size: 12px; font-weight: 200;" fill="rgb(50, 49, 63)" stroke="none" stroke-width="1px">180</text><text x="210.60825892857142" y="0" dx="0em" dy="0.95em" style="text-anchor: middle; visibility: inherit; font-family: Roboto, sans-serif; font-size: 12px; font-weight: 200;" fill="rgb(50, 49, 63)" stroke="none" stroke-width="1px">200</text><text x="229.75446428571428" y="0" dx="0em" dy="0.95em" style="text-anchor: middle; visibility: hidden; font-family: Roboto, sans-serif; font-size: 12px; font-weight: 200;" fill="rgb(50, 49, 63)" stroke="none" stroke-width="1px">220</text><text x="248.90066964285714" y="0" dx="0em" dy="0.95em" style="text-anchor: middle; visibility: inherit; font-family: Roboto, sans-serif; font-size: 12px; font-weight: 200;" fill="rgb(50, 49, 63)" stroke="none" stroke-width="1px">240</text><text x="268.046875" y="0" dx="0em" dy="0.95em" style="text-anchor: middle; visibility: hidden; font-family: Roboto, sans-serif; font-size: 12px; font-weight: 200;" fill="rgb(50, 49, 63)" stroke="none" stroke-width="1px">260</text></g><line x1="0" y1="0" x2="268.046875" y2="0" fill="rgb(0, 0, 0)" stroke="rgb(204, 204, 204)" stroke-width="1px"></line></g></g></g></g></svg>