<svg viewBox="0 0 330 200" xmlns="http://www.w3.org/2000/svg"><g><g><g><g><g><line x1="72.34375" y1="178" x2="67.34375" y2="178" style="visibility: inherit;" fill="rgb(0, 0, 0)" stroke="rgb(204, 204, 204)" stroke-width="1px"></line><line x1="72.34375" y1="164.3076923076923" x2="67.34375" y2="164.3076923076923" style="visibility: inherit;" fill="rgb(0, 0, 0)" stroke="rgb(204, 204, 204)" stroke-width="1px"></line><line x1="72.34375" y1="150.6153846153846" x2="67.34375" y2="150.6153846153846" style="visibility: inherit;" fill="rgb(0, 0, 0)" stroke="rgb(204, 204, 204)" stroke-width="1px"></line><line x1="72.34375" y1="136.9230769230769" x2="67.34375" y2="136.9230769230769" style="visibility: inherit;" fill="rgb(0, 0, 0)" stroke="rgb(204, 204, 204)" stroke-width="1px"></line><line x1="72.34375" y1="123.23076923076921" x2="67.34375" y2="123.23076923076921" style="visibility: inherit;" fill="rgb(0, 0, 0)" stroke="rgb(204, 204, 204)" stroke-width="1px"></line><line x1="72.34375" y1="109.53846153846155" x2="67.34375" y2="109.53846153846155" style="visibility: inherit;" fill="rgb(0, 0, 0)" stroke="rgb(204, 204, 204)" stroke-width="1px"></line><line x1="72.34375" y1="95.84615384615384" x2="67.34375" y2="95.84615384615384" style="visibility: inherit;" fill="rgb(0, 0, 0)" stroke="rgb(204, 204, 204)" stroke-width="1px"></line><line x1="72.34375" y1="82.15384615384613" x2="67.34375" y2="82.15384615384613" style="visibility: inherit;" fill="rgb(0, 0, 0)" stroke="rgb(204, 204, 204)" stroke-width="1px"></line><line x1="72.34375" y1="68.46153846153844" x2="67.34375" y2="68.46153846153844" style="visibility: inherit;" fill="rgb(0, 0, 0)" stroke="rgb(204, 204, 204)" stroke-width="1px"></line><line x1="72.34375" y1="54.769230769230774" x2="67.34375" y2="54.769230769230774" style="visibility: inherit;" fill="rgb(0, 0, 0)" stroke="rgb(204, 204, 204)" stroke-width="1px"></line><line x1="72.34375" y1="41.076923076923066" x2="67.34375" y2="41.076923076923066" style="visibility: inherit;" fill="rgb(0, 0, 0)" stroke="rgb(204, 204, 204)" stroke-width="1px"></line><line x1="72.34375" y1="27.384615384615365" x2="67.34375" y2="27.384615384615365" style="visibility: inherit;" fill="rgb(0, 0, 0)" stroke="rgb(204, 204, 204)" stroke-width="1px"></line><line x1="72.34375" y1="13.692307692307663" x2="67.34375" y2="13.692307692307663" style="visibility: inherit;" fill="rgb(0, 0, 0)" stroke="rgb(204, 204, 204)" stroke-width="1px"></line><line x1="72.34375" y1="0" x2="67.34375" y2="0" style="visibility: inherit;" fill="rgb(0, 0, 0)" stroke="rgb(204, 204, 204)" stroke-width="1px"></line></g><g transform="translate(62.34375, 0)"><text x="0" y="178" dx="0em" dy="0.3em" style="text-anchor: end; visibility: hidden; font-family: Roboto, sans-serif; font-size: 12px; font-weight: 200;" fill="rgb(50, 49, 63)" stroke="none" stroke-width="1px">6.5e-3</text><text x="0" y="164.3076923076923" dx="0em" dy="0.3em" style="text-anchor: end; visibility: inherit; font-family: Roboto, sans-serif; font-size: 12px; font-weight: 200;" fill="rgb(50, 49, 63)" stroke="none" stroke-width="1px">7e-3</text><text x="0" y="150.6153846153846" dx="0em" dy="0.3em" style="text-anchor: end; visibility: hidden; font-family: Roboto, sans-serif; font-size: 12px; font-weight: 200;" fill="rgb(50, 49, 63)" stroke="none" stroke-width="1px">7.5e-3</text><text x="0" y="136.9230769230769" dx="0em" dy="0.3em" style="text-anchor: end; visibility: inherit; font-family: Roboto, sans-serif; font-size: 12px; font-weight: 200;" fill="rgb(50, 49, 63)" stroke="none" stroke-width="1px">8e-3</text><text x="0" y="123.23076923076921" dx="0em" dy="0.3em" style="text-anchor: end; visibility: hidden; font-family: Roboto, sans-serif; font-size: 12px; font-weight: 200;" fill="rgb(50, 49, 63)" stroke="none" stroke-width="1px">8.5e-3</text><text x="0" y="109.53846153846155" dx="0em" dy="0.3em" style="text-anchor: end; visibility: inherit; font-family: Roboto, sans-serif; font-size: 12px; font-weight: 200;" fill="rgb(50, 49, 63)" stroke="none" stroke-width="1px">9e-3</text><text x="0" y="95.84615384615384" dx="0em" dy="0.3em" style="text-anchor: end; visibility: hidden; font-family: Roboto, sans-serif; font-size: 12px; font-weight: 200;" fill="rgb(50, 49, 63)" stroke="none" stroke-width="1px">9.5e-3</text><text x="0" y="82.15384615384613" dx="0em" dy="0.3em" style="text-anchor: end; visibility: inherit; font-family: Roboto, sans-serif; font-size: 12px; font-weight: 200;" fill="rgb(50, 49, 63)" stroke="none" stroke-width="1px">0.01</text><text x="0" y="68.46153846153844" dx="0em" dy="0.3em" style="text-anchor: end; visibility: hidden; font-family: Roboto, sans-serif; font-size: 12px; font-weight: 200;" fill="rgb(50, 49, 63)" stroke="none" stroke-width="1px">0.0105</text><text x="0" y="54.769230769230774" dx="0em" dy="0.3em" style="text-anchor: end; visibility: inherit; font-family: Roboto, sans-serif; font-size: 12px; font-weight: 200;" fill="rgb(50, 49, 63)" stroke="none" stroke-width="1px">0.011</text><text x="0" y="41.076923076923066" dx="0em" dy="0.3em" style="text-anchor: end; visibility: hidden; font-family: Roboto, sans-serif; font-size: 12px; font-weight: 200;" fill="rgb(50, 49, 63)" stroke="none" stroke-width="1px">0.0115</text><text x="0" y="27.384615384615365" dx="0em" dy="0.3em" style="text-anchor: end; visibility: inherit; font-family: Roboto, sans-serif; font-size: 12px; font-weight: 200;" fill="rgb(50, 49, 63)" stroke="none" stroke-width="1px">0.012</text><text x="0" y="13.692307692307663" dx="0em" dy="0.3em" style="text-anchor: end; visibility: hidden; font-family: Roboto, sans-serif; font-size: 12px; font-weight: 200;" fill="rgb(50, 49, 63)" stroke="none" stroke-width="1px">0.0125</text><text x="0" y="0" dx="0em" dy="0.3em" style="text-anchor: end; visibility: hidden; font-family: Roboto, sans-serif; font-size: 12px; font-weight: 200;" fill="rgb(50, 49, 63)" stroke="none" stroke-width="1px">0.013</text></g><line x1="72.34375" y1="0" x2="72.34375" y2="178" fill="rgb(0, 0, 0)" stroke="rgb(204, 204, 204)" stroke-width="1px"></line></g></g><g transform="translate(72, 0)" clip-path="url(#clip_0)"><clipPath id="clip_0"><rect width="257" height="178"></rect></clipPath><g><g><g><line x1="0" y1="0" x2="0" y2="178" fill="rgb(0, 0, 0)" stroke="rgb(60, 60, 60)" stroke-width="1px" opacity="0.25"></line><line x1="18.404017857142858" y1="0" x2="18.404017857142858" y2="178" fill="rgb(0, 0, 0)" stroke="rgb(60, 60, 60)" stroke-width="1px" opacity="0.25"></line><line x1="36.808035714285715" y1="0" x2="36.808035714285715" y2="178" fill="rgb(0, 0, 0)" stroke="rgb(60, 60, 60)" stroke-width="1px" opacity="0.25"></line><line x1="55.21205357142857" y1="0" x2="55.21205357142857" y2="178" fill="rgb(0, 0, 0)" stroke="rgb(60, 60, 60)" stroke-width="1px" opacity="0.25"></line><line x1="73.61607142857143" y1="0" x2="73.61607142857143" y2="178" fill="rgb(0, 0, 0)" stroke="rgb(60, 60, 60)" stroke-width="1px" opacity="0.25"></line><line x1="92.02008928571429" y1="0" x2="92.02008928571429" y2="178" fill="rgb(0, 0, 0)" stroke="rgb(60, 60, 60)" stroke-width="1px" opacity="0.25"></line><line x1="110.42410714285714" y1="0" x2="110.42410714285714" y2="178" fill="rgb(0, 0, 0)" stroke="rgb(60, 60, 60)" stroke-width="1px" opacity="0.25"></line><line x1="128.828125" y1="0" x2="128.828125" y2="178" fill="rgb(0, 0, 0)" stroke="rgb(60, 60, 60)" stroke-width="1px" opacity="0.25"></line><line x1="147.23214285714286" y1="0" x2="147.23214285714286" y2="178" fill="rgb(0, 0, 0)" stroke="rgb(60, 60, 60)" stroke-width="1px" opacity="0.25"></line><line x1="165.63616071428572" y1="0" x2="165.63616071428572" y2="178" fill="rgb(0, 0, 0)" stroke="rgb(60, 60, 60)" stroke-width="1px" opacity="0.25"></line><line x1="184.04017857142858" y1="0" x2="184.04017857142858" y2="178" fill="rgb(0, 0, 0)" stroke="rgb(60, 60, 60)" stroke-width="1px" opacity="0.25"></line><line x1="202.44419642857142" y1="0" x2="202.44419642857142" y2="178" fill="rgb(0, 0, 0)" stroke="rgb(60, 60, 60)" stroke-width="1px" opacity="0.25"></line><line x1="220.84821428571428" y1="0" x2="220.84821428571428" y2="178" fill="rgb(0, 0, 0)" stroke="rgb(60, 60, 60)" stroke-width="1px" opacity="0.25"></line><line x1="239.25223214285714" y1="0" x2="239.25223214285714" y2="178" fill="rgb(0, 0, 0)" stroke="rgb(60, 60, 60)" stroke-width="1px" opacity="0.25"></line><line x1="257.65625" y1="0" x2="257.65625" y2="178" fill="rgb(0, 0, 0)" stroke="rgb(60, 60, 60)" stroke-width="1px" opacity="0.25"></line></g><g><line x1="0" y1="178" x2="257.65625" y2="178" fill="rgb(0, 0, 0)" stroke="rgb(60, 60, 60)" stroke-width="1px" opacity="0.25"></line><line x1="0" y1="164.3076923076923" x2="257.65625" y2="164.3076923076923" fill="rgb(0, 0, 0)" stroke="rgb(60, 60, 60)" stroke-width="1px" opacity="0.25"></line><line x1="0" y1="150.6153846153846" x2="257.65625" y2="150.6153846153846" fill="rgb(0, 0, 0)" stroke="rgb(60, 60, 60)" stroke-width="1px" opacity="0.25"></line><line x1="0" y1="136.9230769230769" x2="257.65625" y2="136.9230769230769" fill="rgb(0, 0, 0)" stroke="rgb(60, 60, 60)" stroke-width="1px" opacity="0.25"></line><line x1="0" y1="123.23076923076921" x2="257.65625" y2="123.23076923076921" fill="rgb(0, 0, 0)" stroke="rgb(60, 60, 60)" stroke-width="1px" opacity="0.25"></line><line x1="0" y1="109.53846153846155" x2="257.65625" y2="109.53846153846155" fill="rgb(0, 0, 0)" stroke="rgb(60, 60, 60)" stroke-width="1px" opacity="0.25"></line><line x1="0" y1="95.84615384615384" x2="257.65625" y2="95.84615384615384" fill="rgb(0, 0, 0)" stroke="rgb(60, 60, 60)" stroke-width="1px" opacity="0.25"></line><line x1="0" y1="82.15384615384613" x2="257.65625" y2="82.15384615384613" fill="rgb(0, 0, 0)" stroke="rgb(60, 60, 60)" stroke-width="1px" opacity="0.25"></line><line x1="0" y1="68.46153846153844" x2="257.65625" y2="68.46153846153844" fill="rgb(0, 0, 0)" stroke="rgb(60, 60, 60)" stroke-width="1px" opacity="0.25"></line><line x1="0" y1="54.769230769230774" x2="257.65625" y2="54.769230769230774" fill="rgb(0, 0, 0)" stroke="rgb(60, 60, 60)" stroke-width="1px" opacity="0.25"></line><line x1="0" y1="41.076923076923066" x2="257.65625" y2="41.076923076923066" fill="rgb(0, 0, 0)" stroke="rgb(60, 60, 60)" stroke-width="1px" opacity="0.25"></line><line x1="0" y1="27.384615384615365" x2="257.65625" y2="27.384615384615365" fill="rgb(0, 0, 0)" stroke="rgb(60, 60, 60)" stroke-width="1px" opacity="0.25"></line><line x1="0" y1="13.692307692307663" x2="257.65625" y2="13.692307692307663" fill="rgb(0, 0, 0)" stroke="rgb(60, 60, 60)" stroke-width="1px" opacity="0.25"></line><line x1="0" y1="0" x2="257.65625" y2="0" fill="rgb(0, 0, 0)" stroke="rgb(60, 60, 60)" stroke-width="1px" opacity="0.25"></line></g></g></g><g><g><line x1="0" y1="356" x2="257.65625" y2="356" fill="rgb(0, 0, 0)" stroke="rgb(153, 153, 153)" stroke-width="1.5px"></line></g></g><g><g><line x1="18.404017857142858" y1="0" x2="18.404017857142858" y2="178" fill="rgb(0, 0, 0)" stroke="rgb(153, 153, 153)" stroke-width="1.5px"></line></g></g><g><g><g><g><g><path stroke="rgb(255, 112, 67)" stroke-width="2px" d="M18.404017857142858,57.97224301787527L19.32421875,56.7044033573465L20.244419642857142,57.56518931297319L21.164620535714285,57.33155630823327L22.084821428571427,55.630939267318986L23.005022321428573,54.294641428603946L23.925223214285715,57.25875584048738L24.845424107142858,55.70416636971427L25.765625,55.42914934759657L26.685825892857146,55.33292792745288L27.606026785714285,52.654833556171106L28.526227678571427,51.76813416323171L29.44642857142857,49.782332695056446L30.366629464285715,47.42993524110329L31.286830357142858,46.97437851516874L32.20703125,44.04790686327039L33.12723214285714,40.10177139221177L34.047433035714285,38.12965654065271L34.96763392857142,33.894588912547256L35.88783482142857,31.844008665754743L36.808035714285715,28.83602527872486L37.72823660714286,23.392442553670776L38.6484375,22.689852596166084L39.568638392857146,22.37138129595134L40.488839285714285,21.050828379467784L41.40904017857143,21.21947025547812L42.32924107142857,20.56600930163934L43.24944196428571,18.996744606279407L44.169642857142854,18.789575066628455L45.08984375,18.110751747133882L46.010044642857146,18.376771613260853L46.930245535714285,18.278173594771605L47.85044642857143,20.668257796089684L48.77064732142857,20.415760173394187L49.690848214285715,20.802902248351682L50.611049107142854,21.780769399278594L51.53125,23.718328035809193L52.451450892857146,24.559317137715823L53.37165178571429,26.290436962071446L54.29185267857143,27.27135876330434L55.21205357142857,28.113048721135975L56.132254464285715,28.665617013911906L57.052455357142854,29.109942272871933L57.97265625,30.41942172539835L58.89285714285714,30.84270164489803L59.813058035714285,31.7148606380513L60.73325892857143,33.04156640381667L61.65345982142858,32.647522391818946L62.573660714285715,34.245090041560466L63.49386160714286,34.7837336440734L64.4140625,36.083891058029074L65.33426339285714,37.61941397839475L66.25446428571428,37.831781539706135L67.17466517857143,39.954976777712176L68.09486607142857,41.14988586137907L69.01506696428571,40.891530418612305L69.93526785714285,42.17822001644165L70.85546875,43.98930602536779L71.77566964285714,45.72898992600812L72.69587053571429,47.36574984708848L73.61607142857143,47.86056374924533L74.53627232142858,49.045712715217185L75.45647321428572,51.113622135476334L76.37667410714286,50.834298605071616L77.296875,53.17607988696297L78.21707589285714,55.25192043253761L79.13727678571429,54.70270358731431L80.05747767857143,56.123137256884526L80.97767857142857,56.75337937190525L81.89787946428571,57.115285366456014L82.81808035714286,57.10953616878123L83.73828125,58.76270075490154L84.65848214285714,59.27126529367386L85.57868303571428,59.59745862602069L86.49888392857142,60.90350443789945L87.41908482142857,61.861590177441876L88.33928571428571,63.19987020320719L89.25948660714286,64.26807960279824L90.1796875,65.31177267425463L91.09988839285715,67.31462539714283L92.02008928571429,68.8107576919751L92.94029017857143,69.24889901464209L93.86049107142857,69.84501524940542L94.78069196428572,70.44997688213324L95.70089285714286,71.61915079381424L96.62109375,71.60087308939113L97.54129464285714,72.10933103467646L98.46149553571428,71.62980067917155L99.38169642857143,72.98227690657625L100.30189732142857,72.97009652064112L101.22209821428571,75.22139959812228L102.14229910714285,75.4603533515027L103.0625,76.43153984923097L103.98270089285714,78.3814826788953L104.90290178571429,79.98721067026588L105.82310267857143,79.30343668938015L106.74330357142858,80.46160856663194L107.66350446428572,81.12102441847017L108.58370535714286,81.06633181791908L109.50390625,81.9407370327781L110.42410714285714,82.0368971818706L111.34430803571429,81.40952515750915L112.26450892857143,82.00053826849773L113.18470982142857,82.71336813683422L114.10491071428571,83.82280453712325L115.02511160714286,84.80696824245969L115.9453125,84.49555437117971L116.86551339285714,85.78098305615359L117.78571428571428,86.14185278762785L118.70591517857142,87.03544872359552L119.62611607142857,87.16216646369087L120.54631696428571,87.05452292475942L121.46651785714286,88.14121440927624L122.38671875,89.32741993701184L123.30691964285715,90.69623187679124L124.22712053571429,92.44854810191727L125.14732142857143,93.69930453500513L126.06752232142857,94.75747515184476L126.98772321428572,95.67472674748453L127.90792410714286,97.45168921361149L128.828125,98.95905838544506L129.74832589285714,100.57208129066791L130.66852678571428,100.54093394595768L131.58872767857142,101.35989821361989L132.50892857142856,101.15310500352058L133.42912946428572,101.53587219179666L134.34933035714286,101.42425754766901L135.26953125,102.00958765474374L136.18973214285714,102.56083777650058L137.10993303571428,103.24652333370459L138.03013392857142,103.08968243366311L138.95033482142856,102.71926569242079L139.8705357142857,104.3592497334254L140.79073660714283,104.74250395938112L141.7109375,106.66365448825704L142.63113839285714,106.37457682765009L143.55133928571428,108.23187792716682L144.47154017857142,109.01136231109479L145.39174107142858,109.82517409903888L146.31194196428572,110.30778863848278L147.23214285714286,111.01877250140885L148.15234375,111.36926751617496L149.07254464285717,112.41736660544103L149.9927455357143,113.04339720194835L150.91294642857144,114.0125027546588L151.83314732142858,114.38471129238225L152.75334821428572,114.51573905018913L153.67354910714286,115.63958433489327L154.59375,117.65065822736526L155.51395089285714,118.62218860063166L156.43415178571428,119.49276582816907L157.35435267857144,121.33654164881835L158.27455357142858,121.05812703110752L159.19475446428572,121.92425035337047L160.11495535714286,123.30647234078766L161.03515625,124.05805021955646L161.95535714285714,124.66655848272093L162.87555803571428,124.4296263149491L163.79575892857142,125.37839404826488L164.71595982142856,125.69580766522138L165.63616071428572,125.79950950833445L166.55636160714286,126.02255661052362L167.4765625,127.6684360584456L168.39676339285714,128.07100009104818L169.31696428571428,128.57692024209564L170.23716517857142,129.67261332848398L171.15736607142856,130.03232533917793L172.0775669642857,130.44131552024737L172.99776785714283,130.66241489070035L173.91796875,131.39721598804508L174.83816964285714,131.14653752314615L175.75837053571428,130.76727094336945L176.67857142857142,131.9636599955917L177.59877232142858,132.9730147803933L178.51897321428572,134.20270302282097L179.43917410714286,133.996311513301L180.359375,135.0195873445329L181.27957589285717,135.54305969341925L182.1997767857143,135.3038932433913L183.11997767857144,136.06782528191837L184.04017857142858,136.56454895713867L184.96037946428572,136.66468842085322L185.88058035714286,136.6050549749889L186.80078125,137.78151881940963L187.72098214285714,138.2045658689251L188.64118303571428,139.19939902341633L189.56138392857144,139.95313584801332L190.48158482142858,139.44717134428964L191.40178571428572,140.2406877099566L192.32198660714286,140.61899399099102L193.2421875,140.0472062401163L194.16238839285714,140.94271230423794L195.08258928571428,141.40310252577336L196.00279017857142,142.36913391467118L196.92299107142856,141.93090398514437L197.84319196428572,142.2468306896192L198.76339285714286,143.33785723921787L199.68359375,144.33526328254152L200.60379464285714,144.72453121857433L201.52399553571428,145.86592332804656L202.44419642857142,145.90935395170038L203.36439732142856,145.98235916358334L204.2845982142857,145.90429065950715L205.20479910714283,146.29086525258487L206.125,146.43256796745678L207.04520089285714,146.14186688308655L207.96540178571428,145.58071415651727L208.88560267857142,146.24780454991196L209.80580357142858,146.14794926172044L210.72600446428572,147.0162473931056L211.64620535714286,147.9415845456969L212.56640625,149.18955211503064L213.48660714285717,150.2113703870193L214.4068080357143,151.21217302696908L215.32700892857144,150.65377842683273L216.24720982142858,149.9016445688833L217.16741071428572,150.3673796248176L218.08761160714286,150.95280754372442L219.0078125,151.10025441657004L219.92801339285714,151.95566856533964L220.84821428571428,151.3102438670945L221.76841517857144,152.82405391719573L222.68861607142858,153.54209733382427L223.60881696428572,153.68091060534834L224.52901785714286,153.90598620471192L225.44921875,155.0604137424336L226.36941964285714,154.95422703761926L227.28962053571428,155.39907156455868L228.20982142857142,155.41921424019998L229.13002232142856,155.48446367332716L230.05022321428572,155.96538627362762L230.97042410714286,156.37573236639395L231.890625,156.3112669640281L232.81082589285714,157.06128722324476L233.73102678571428,156.40000001130994L234.65122767857142,157.09441232499012L235.57142857142856,158.48977238075815L236.4916294642857,157.53065576491093L237.41183035714283,158.5700527358992L238.33203125,159.21360882768656L239.25223214285714,159.0447592120511L240.17243303571428,158.70530255990144L241.09263392857142,158.80122057392578L242.01283482142858,158.70648304911253L242.93303571428572,158.40352427268763L243.85323660714286,158.86062771870445L244.7734375,159.2325152627469L245.69363839285717,159.44759306094326L246.6138392857143,160.35293258966985L247.53404017857144,161.15047201811117" style="fill: none;" fill="none"></path></g></g></g></g><g opacity="0.2"><g><g><g><path stroke="rgb(255, 112, 67)" stroke-width="2px" d="M18.404017857142858,57.97224301787521L19.32421875,55.56334766287069L20.244419642857142,59.037133297094925L21.164620535714285,56.761725409672785L22.084821428571427,50.36735946398514L23.005022321428573,49.36959547721421L23.925223214285715,69.75851820294672L24.845424107142858,48.40485905454708L25.765625,54.0194684404593L26.685825892857146,54.80243849295835L27.606026785714285,36.956128125007325L28.526227678571427,46.29214061223542L29.44642857142857,36.95776037527964L30.366629464285715,31.63988898809138L31.286830357142858,43.8123188821169L32.20703125,23.132473049255513L33.12723214285714,11.167593978918497L34.047433035714285,23.34066147070664L34.96763392857142,1.499928639485269L35.88783482142857,15.881813308367338L36.808035714285715,5.055479810788064L37.72823660714286,-20.23912010055323L38.6484375,16.98924411030914L39.568638392857146,19.759172822420403L40.488839285714285,10.11387441249992L41.40904017857143,22.628286242485025L42.32924107142857,15.064846543165348L43.24944196428571,5.694633311950222L44.169642857142854,17.022628729160008L45.08984375,12.289102939458989L46.010044642857146,20.669458396159666L46.930245535714285,17.424646870448022L47.85044642857143,41.44040419734441L48.77064732142857,18.213508326273686L49.690848214285715,24.190273241354852L50.611049107142854,30.361275938841008L51.53125,40.76350490863505L52.451450892857146,31.97475533302012L53.37165178571429,41.58621005370066L54.29185267857143,35.95466607121319L55.21205357142857,35.57629005496316L56.132254464285715,33.57257532614927L57.052455357142854,33.06099238533239L57.97265625,42.07774692086071L58.89285714285714,34.615277203229745L59.813058035714285,39.49578202917025L60.73325892857143,44.88812483503268L61.65345982142858,29.126198064822407L62.573660714285715,48.53171550539822L63.49386160714286,39.603765586247796L64.4140625,47.725001312219156L65.33426339285714,51.37501896803193L66.25446428571428,39.7351107253478L67.17466517857143,58.99194036768032L68.09486607142857,51.86770351116471L69.01506696428571,38.57340760185168L69.93526785714285,53.72670905177407L70.85546875,60.24890059691208L71.77566964285714,61.35140914412643L72.69587053571429,62.06717639244519L73.61607142857143,52.30588619754864L74.53627232142858,59.69480263728361L75.45647321428572,69.69771688030315L76.37667410714286,48.32368010741013L77.296875,74.22726239378635L78.21707589285714,73.91466096272833L79.13727678571429,49.764472523560876L80.05747767857143,68.89605246140405L80.97767857142857,62.42117067025257L81.89787946428571,60.370171691362664L82.81808035714286,57.05782581063415L83.73828125,73.63279174382869L84.65848214285714,63.84602314233778L85.57868303571428,62.53185764184364L86.49888392857142,72.65308452569519L87.41908482142857,70.48117150710178L88.33928571428571,75.2403797346812L89.25948660714286,73.87908300757407L90.1796875,74.7024767582233L91.09988839285715,85.33592418065436L92.02008928571429,82.27300654466335L92.94029017857143,73.19139556472116L93.86049107142857,75.20911194040224L94.78069196428572,75.89376441790506L95.70089285714286,82.14020768266457L96.62109375,71.4363949711506L97.54129464285714,76.68492122567616L98.46149553571428,67.3144784592665L99.38169642857143,85.15341819708163L100.30189732142857,72.86048232592069L101.22209821428571,95.48158381076958L102.14229910714285,77.61078968873389L103.0625,85.1716789970031L103.98270089285714,95.92999356526593L104.90290178571429,94.43804030464244L105.82310267857143,73.14974767886673L106.74330357142858,90.88473347746407L107.66350446428572,87.05555085035469L108.58370535714286,80.57411455420346L109.50390625,89.81015171225253L110.42410714285714,82.90231553637062L111.34430803571429,75.76331191567273L112.26450892857143,87.31954182799045L113.18470982142857,89.12871272747333L114.10491071428571,93.80755813305194L115.02511160714286,93.66430266774616L115.9453125,81.69286909240941L116.86551339285714,97.34969424742917L117.78571428571428,89.3896432358485L118.70591517857142,95.07772938792522L119.62611607142857,88.30261556231056L120.54631696428571,86.0857391494971L121.46651785714286,97.9213644013955L122.38671875,100.00319760808577L123.30691964285715,103.01546447781415L124.22712053571429,108.2193078811352L125.14732142857143,104.95605702812855L126.06752232142857,104.28096851706505L126.98772321428572,103.92995819678671L127.90792410714286,113.44429402626476L128.828125,112.52533712295384L129.74832589285714,115.0892452460069L130.66852678571428,100.26060857681126L131.58872767857142,108.73055927111551L132.50892857142856,99.29197005583688L133.42912946428572,104.98077031740775L134.34933035714286,100.41972747445107L135.26953125,107.27755048183293L136.18973214285714,107.52208197575348L137.10993303571428,109.41768562793732L138.03013392857142,101.67811592267108L138.95033482142856,99.3855183995687L139.8705357142857,119.11909264096846L140.79073660714283,108.19178916170046L141.7109375,123.95399647492627L142.63113839285714,103.77287961198732L143.55133928571428,124.94757782037442L144.47154017857142,116.02671798834433L145.39174107142858,117.14947664049954L146.31194196428572,114.65131759872801L147.23214285714286,117.41762475554759L148.15234375,114.52372153447223L149.07254464285717,121.85025540911232L149.9927455357143,118.67767095795043L150.91294642857144,122.73445048240514L151.83314732142858,117.73458735530193L152.75334821428572,115.6949886244077L153.67354910714286,125.75418999791145L154.59375,135.7503202007367L155.51395089285714,127.36596063008673L156.43415178571428,127.32795980343451L157.35435267857144,137.9305219902442L158.27455357142858,118.55239574955058L159.19475446428572,129.7193594758327L160.11495535714286,135.74646911025047L161.03515625,130.82225058170462L161.95535714285714,130.14313245278137L162.87555803571428,122.29723694462041L163.79575892857142,133.9173031449318L164.71595982142856,128.55253006632512L165.63616071428572,126.73282605180373L166.55636160714286,128.02998044399112L167.4765625,142.4813505170437L168.39676339285714,131.6940762584026L169.31696428571428,133.13020145893097L170.23716517857142,139.53385082804238L171.15736607142856,133.26973335330302L172.0775669642857,134.12222706583827L172.99776785714283,132.652309183891L173.91796875,138.0104257418559L174.83816964285714,128.8904313766039L175.75837053571428,127.35387177650745L176.67857142857142,142.73116132043873L177.59877232142858,142.05720773339272L178.51897321428572,145.26989708382348L179.43917410714286,132.13878794587572L180.359375,144.22906974416512L181.27957589285717,140.254310795894L182.1997767857143,133.15139520856047L183.11997767857144,142.94321358433135L184.04017857142858,141.03506200817912L184.96037946428572,137.5659435895773L185.88058035714286,136.06835396473224L186.80078125,148.36969337440453L187.72098214285714,142.0119893000676L188.64118303571428,148.152897383158L189.56138392857144,146.73676724846544L190.48158482142858,134.8934908234156L191.40178571428572,147.3823349831196L192.32198660714286,144.0237505126458L193.2421875,134.90111649265654L194.16238839285714,149.00226686665644L195.08258928571428,145.54661451280117L196.00279017857142,151.06341640192727L196.92299107142856,137.9868346246389L197.84319196428572,145.09017102649577L198.76339285714286,153.15709617504706L199.68359375,153.3119176637668L200.60379464285714,148.22794263981854L201.52399553571428,156.13845230524356L202.44419642857142,146.30022956430912L203.36439732142856,146.63940607011318L204.2845982142857,145.201674123223L205.20479910714283,149.77003658849458L206.125,147.70789240071406L207.04520089285714,143.52555712484394L207.96540178571428,140.53033961928807L208.88560267857142,152.25161808843794L209.80580357142858,145.2492516682698L210.72600446428572,154.83093057343592L211.64620535714286,156.26961891697002L212.56640625,160.42126023654754L213.48660714285717,159.40773483308462L214.4068080357143,160.21939678490162L215.32700892857144,145.62822702641668L216.24720982142858,143.13243984832212L217.16741071428572,154.55899512767792L218.08761160714286,156.22165881326563L219.0078125,152.42727627204013L219.92801339285714,159.6543959035323L220.84821428571428,145.50142158338656L221.76841517857144,166.44834436705477L222.68861607142858,160.00448808303244L223.60881696428572,154.93023004898657L224.52901785714286,155.93166659887018L225.44921875,165.45026158140254L226.36941964285714,153.99854669433373L227.28962053571428,159.40267230684938L228.20982142857142,155.60049832096465L229.13002232142856,156.07170857145235L230.05022321428572,160.29368967620223L230.97042410714286,160.06884720119146L231.890625,155.73107834274953L232.81082589285714,163.81146955604734L233.73102678571428,150.4484151040132L234.65122767857142,163.34412314800113L235.57142857142856,171.04801288247108L236.4916294642857,148.89860622240946L237.41183035714283,167.92462547467304L238.33203125,165.00561365370567L239.25223214285714,157.52511267134776L240.17243303571428,155.65019269058337L241.09263392857142,159.66448270013697L242.01283482142858,157.85384532580008L242.93303571428572,155.67689528488194L243.85323660714286,162.97455873283056L244.7734375,162.57950315911035L245.69363839285717,161.38329324470115L246.6138392857143,168.50098834817226L247.53404017857144,168.32832687405437" style="fill: none;" fill="none"></path></g></g></g></g></g></g><g transform="translate(72, 178)" clip-path="url(#clip_1)"><clipPath id="clip_1"><rect width="257" height="22"></rect></clipPath><g><g><line x1="0" y1="0" x2="0" y2="5" style="visibility: inherit;" fill="rgb(0, 0, 0)" stroke="rgb(204, 204, 204)" stroke-width="1px"></line><line x1="18.404017857142858" y1="0" x2="18.404017857142858" y2="5" style="visibility: inherit;" fill="rgb(0, 0, 0)" stroke="rgb(204, 204, 204)" stroke-width="1px"></line><line x1="36.808035714285715" y1="0" x2="36.808035714285715" y2="5" style="visibility: inherit;" fill="rgb(0, 0, 0)" stroke="rgb(204, 204, 204)" stroke-width="1px"></line><line x1="55.21205357142857" y1="0" x2="55.21205357142857" y2="5" style="visibility: inherit;" fill="rgb(0, 0, 0)" stroke="rgb(204, 204, 204)" stroke-width="1px"></line><line x1="73.61607142857143" y1="0" x2="73.61607142857143" y2="5" style="visibility: inherit;" fill="rgb(0, 0, 0)" stroke="rgb(204, 204, 204)" stroke-width="1px"></line><line x1="92.02008928571429" y1="0" x2="92.02008928571429" y2="5" style="visibility: inherit;" fill="rgb(0, 0, 0)" stroke="rgb(204, 204, 204)" stroke-width="1px"></line><line x1="110.42410714285714" y1="0" x2="110.42410714285714" y2="5" style="visibility: inherit;" fill="rgb(0, 0, 0)" stroke="rgb(204, 204, 204)" stroke-width="1px"></line><line x1="128.828125" y1="0" x2="128.828125" y2="5" style="visibility: inherit;" fill="rgb(0, 0, 0)" stroke="rgb(204, 204, 204)" stroke-width="1px"></line><line x1="147.23214285714286" y1="0" x2="147.23214285714286" y2="5" style="visibility: inherit;" fill="rgb(0, 0, 0)" stroke="rgb(204, 204, 204)" stroke-width="1px"></line><line x1="165.63616071428572" y1="0" x2="165.63616071428572" y2="5" style="visibility: inherit;" fill="rgb(0, 0, 0)" stroke="rgb(204, 204, 204)" stroke-width="1px"></line><line x1="184.04017857142858" y1="0" x2="184.04017857142858" y2="5" style="visibility: inherit;" fill="rgb(0, 0, 0)" stroke="rgb(204, 204, 204)" stroke-width="1px"></line><line x1="202.44419642857142" y1="0" x2="202.44419642857142" y2="5" style="visibility: inherit;" fill="rgb(0, 0, 0)" stroke="rgb(204, 204, 204)" stroke-width="1px"></line><line x1="220.84821428571428" y1="0" x2="220.84821428571428" y2="5" style="visibility: inherit;" fill="rgb(0, 0, 0)" stroke="rgb(204, 204, 204)" stroke-width="1px"></line><line x1="239.25223214285714" y1="0" x2="239.25223214285714" y2="5" style="visibility: inherit;" fill="rgb(0, 0, 0)" stroke="rgb(204, 204, 204)" stroke-width="1px"></line><line x1="257.65625" y1="0" x2="257.65625" y2="5" style="visibility: inherit;" fill="rgb(0, 0, 0)" stroke="rgb(204, 204, 204)" stroke-width="1px"></line></g><g transform="translate(0, 8)"><text x="0" y="0" dx="0em" dy="0.95em" style="text-anchor: middle; visibility: hidden; font-family: Roboto, sans-serif; font-size: 12px; font-weight: 200;" fill="rgb(50, 49, 63)" stroke="none" stroke-width="1px">-20</text><text x="18.404017857142858" y="0" dx="0em" dy="0.95em" style="text-anchor: middle; visibility: inherit; font-family: Roboto, sans-serif; font-size: 12px; font-weight: 200;" fill="rgb(50, 49, 63)" stroke="none" stroke-width="1px">0</text><text x="36.808035714285715" y="0" dx="0em" dy="0.95em" style="text-anchor: middle; visibility: hidden; font-family: Roboto, sans-serif; font-size: 12px; font-weight: 200;" fill="rgb(50, 49, 63)" stroke="none" stroke-width="1px">20</text><text x="55.21205357142857" y="0" dx="0em" dy="0.95em" style="text-anchor: middle; visibility: inherit; font-family: Roboto, sans-serif; font-size: 12px; font-weight: 200;" fill="rgb(50, 49, 63)" stroke="none" stroke-width="1px">40</text><text x="73.61607142857143" y="0" dx="0em" dy="0.95em" style="text-anchor: middle; visibility: hidden; font-family: Roboto, sans-serif; font-size: 12px; font-weight: 200;" fill="rgb(50, 49, 63)" stroke="none" stroke-width="1px">60</text><text x="92.02008928571429" y="0" dx="0em" dy="0.95em" style="text-anchor: middle; visibility: inherit; font-family: Roboto, sans-serif; font-size: 12px; font-weight: 200;" fill="rgb(50, 49, 63)" stroke="none" stroke-width="1px">80</text><text x="110.42410714285714" y="0" dx="0em" dy="0.95em" style="text-anchor: middle; visibility: hidden; font-family: Roboto, sans-serif; font-size: 12px; font-weight: 200;" fill="rgb(50, 49, 63)" stroke="none" stroke-width="1px">100</text><text x="128.828125" y="0" dx="0em" dy="0.95em" style="text-anchor: middle; visibility: inherit; font-family: Roboto, sans-serif; font-size: 12px; font-weight: 200;" fill="rgb(50, 49, 63)" stroke="none" stroke-width="1px">120</text><text x="147.23214285714286" y="0" dx="0em" dy="0.95em" style="text-anchor: middle; visibility: hidden; font-family: Roboto, sans-serif; font-size: 12px; font-weight: 200;" fill="rgb(50, 49, 63)" stroke="none" stroke-width="1px">140</text><text x="165.63616071428572" y="0" dx="0em" dy="0.95em" style="text-anchor: middle; visibility: inherit; font-family: Roboto, sans-serif; font-size: 12px; font-weight: 200;" fill="rgb(50, 49, 63)" stroke="none" stroke-width="1px">160</text><text x="184.04017857142858" y="0" dx="0em" dy="0.95em" style="text-anchor: middle; visibility: hidden; font-family: Roboto, sans-serif; font-size: 12px; font-weight: 200;" fill="rgb(50, 49, 63)" stroke="none" stroke-width="1px">180</text><text x="202.44419642857142" y="0" dx="0em" dy="0.95em" style="text-anchor: middle; visibility: inherit; font-family: Roboto, sans-serif; font-size: 12px; font-weight: 200;" fill="rgb(50, 49, 63)" stroke="none" stroke-width="1px">200</text><text x="220.84821428571428" y="0" dx="0em" dy="0.95em" style="text-anchor: middle; visibility: hidden; font-family: Roboto, sans-serif; font-size: 12px; font-weight: 200;" fill="rgb(50, 49, 63)" stroke="none" stroke-width="1px">220</text><text x="239.25223214285714" y="0" dx="0em" dy="0.95em" style="text-anchor: middle; visibility: inherit; font-family: Roboto, sans-serif; font-size: 12px; font-weight: 200;" fill="rgb(50, 49, 63)" stroke="none" stroke-width="1px">240</text><text x="257.65625" y="0" dx="0em" dy="0.95em" style="text-anchor: middle; visibility: hidden; font-family: Roboto, sans-serif; font-size: 12px; font-weight: 200;" fill="rgb(50, 49, 63)" stroke="none" stroke-width="1px">260</text></g><line x1="0" y1="0" x2="257.65625" y2="0" fill="rgb(0, 0, 0)" stroke="rgb(204, 204, 204)" stroke-width="1px"></line></g></g></g></g></svg>