<svg viewBox="0 0 330 200" xmlns="http://www.w3.org/2000/svg"><g><g><g><g><g><line x1="61.953125" y1="178" x2="56.953125" y2="178" style="visibility: inherit;" fill="rgb(0, 0, 0)" stroke="rgb(204, 204, 204)" stroke-width="1px"></line><line x1="61.953125" y1="164.30769230769232" x2="56.953125" y2="164.30769230769232" style="visibility: inherit;" fill="rgb(0, 0, 0)" stroke="rgb(204, 204, 204)" stroke-width="1px"></line><line x1="61.953125" y1="150.6153846153846" x2="56.953125" y2="150.6153846153846" style="visibility: inherit;" fill="rgb(0, 0, 0)" stroke="rgb(204, 204, 204)" stroke-width="1px"></line><line x1="61.953125" y1="136.9230769230769" x2="56.953125" y2="136.9230769230769" style="visibility: inherit;" fill="rgb(0, 0, 0)" stroke="rgb(204, 204, 204)" stroke-width="1px"></line><line x1="61.953125" y1="123.23076923076923" x2="56.953125" y2="123.23076923076923" style="visibility: inherit;" fill="rgb(0, 0, 0)" stroke="rgb(204, 204, 204)" stroke-width="1px"></line><line x1="61.953125" y1="109.53846153846155" x2="56.953125" y2="109.53846153846155" style="visibility: inherit;" fill="rgb(0, 0, 0)" stroke="rgb(204, 204, 204)" stroke-width="1px"></line><line x1="61.953125" y1="95.84615384615384" x2="56.953125" y2="95.84615384615384" style="visibility: inherit;" fill="rgb(0, 0, 0)" stroke="rgb(204, 204, 204)" stroke-width="1px"></line><line x1="61.953125" y1="82.15384615384616" x2="56.953125" y2="82.15384615384616" style="visibility: inherit;" fill="rgb(0, 0, 0)" stroke="rgb(204, 204, 204)" stroke-width="1px"></line><line x1="61.953125" y1="68.46153846153845" x2="56.953125" y2="68.46153846153845" style="visibility: inherit;" fill="rgb(0, 0, 0)" stroke="rgb(204, 204, 204)" stroke-width="1px"></line><line x1="61.953125" y1="54.769230769230774" x2="56.953125" y2="54.769230769230774" style="visibility: inherit;" fill="rgb(0, 0, 0)" stroke="rgb(204, 204, 204)" stroke-width="1px"></line><line x1="61.953125" y1="41.076923076923066" x2="56.953125" y2="41.076923076923066" style="visibility: inherit;" fill="rgb(0, 0, 0)" stroke="rgb(204, 204, 204)" stroke-width="1px"></line><line x1="61.953125" y1="27.384615384615387" x2="56.953125" y2="27.384615384615387" style="visibility: inherit;" fill="rgb(0, 0, 0)" stroke="rgb(204, 204, 204)" stroke-width="1px"></line><line x1="61.953125" y1="13.692307692307683" x2="56.953125" y2="13.692307692307683" style="visibility: inherit;" fill="rgb(0, 0, 0)" stroke="rgb(204, 204, 204)" stroke-width="1px"></line><line x1="61.953125" y1="0" x2="56.953125" y2="0" style="visibility: inherit;" fill="rgb(0, 0, 0)" stroke="rgb(204, 204, 204)" stroke-width="1px"></line></g><g transform="translate(51.953125, 0)"><text x="0" y="178" dx="0em" dy="0.3em" style="text-anchor: end; visibility: hidden; font-family: Roboto, sans-serif; font-size: 12px; font-weight: 200;" fill="rgb(50, 49, 63)" stroke="none" stroke-width="1px">2e-3</text><text x="0" y="164.30769230769232" dx="0em" dy="0.3em" style="text-anchor: end; visibility: inherit; font-family: Roboto, sans-serif; font-size: 12px; font-weight: 200;" fill="rgb(50, 49, 63)" stroke="none" stroke-width="1px">3e-3</text><text x="0" y="150.6153846153846" dx="0em" dy="0.3em" style="text-anchor: end; visibility: hidden; font-family: Roboto, sans-serif; font-size: 12px; font-weight: 200;" fill="rgb(50, 49, 63)" stroke="none" stroke-width="1px">4e-3</text><text x="0" y="136.9230769230769" dx="0em" dy="0.3em" style="text-anchor: end; visibility: inherit; font-family: Roboto, sans-serif; font-size: 12px; font-weight: 200;" fill="rgb(50, 49, 63)" stroke="none" stroke-width="1px">5e-3</text><text x="0" y="123.23076923076923" dx="0em" dy="0.3em" style="text-anchor: end; visibility: hidden; font-family: Roboto, sans-serif; font-size: 12px; font-weight: 200;" fill="rgb(50, 49, 63)" stroke="none" stroke-width="1px">6e-3</text><text x="0" y="109.53846153846155" dx="0em" dy="0.3em" style="text-anchor: end; visibility: inherit; font-family: Roboto, sans-serif; font-size: 12px; font-weight: 200;" fill="rgb(50, 49, 63)" stroke="none" stroke-width="1px">7e-3</text><text x="0" y="95.84615384615384" dx="0em" dy="0.3em" style="text-anchor: end; visibility: hidden; font-family: Roboto, sans-serif; font-size: 12px; font-weight: 200;" fill="rgb(50, 49, 63)" stroke="none" stroke-width="1px">8e-3</text><text x="0" y="82.15384615384616" dx="0em" dy="0.3em" style="text-anchor: end; visibility: inherit; font-family: Roboto, sans-serif; font-size: 12px; font-weight: 200;" fill="rgb(50, 49, 63)" stroke="none" stroke-width="1px">9e-3</text><text x="0" y="68.46153846153845" dx="0em" dy="0.3em" style="text-anchor: end; visibility: hidden; font-family: Roboto, sans-serif; font-size: 12px; font-weight: 200;" fill="rgb(50, 49, 63)" stroke="none" stroke-width="1px">0.01</text><text x="0" y="54.769230769230774" dx="0em" dy="0.3em" style="text-anchor: end; visibility: inherit; font-family: Roboto, sans-serif; font-size: 12px; font-weight: 200;" fill="rgb(50, 49, 63)" stroke="none" stroke-width="1px">0.011</text><text x="0" y="41.076923076923066" dx="0em" dy="0.3em" style="text-anchor: end; visibility: hidden; font-family: Roboto, sans-serif; font-size: 12px; font-weight: 200;" fill="rgb(50, 49, 63)" stroke="none" stroke-width="1px">0.012</text><text x="0" y="27.384615384615387" dx="0em" dy="0.3em" style="text-anchor: end; visibility: inherit; font-family: Roboto, sans-serif; font-size: 12px; font-weight: 200;" fill="rgb(50, 49, 63)" stroke="none" stroke-width="1px">0.013</text><text x="0" y="13.692307692307683" dx="0em" dy="0.3em" style="text-anchor: end; visibility: hidden; font-family: Roboto, sans-serif; font-size: 12px; font-weight: 200;" fill="rgb(50, 49, 63)" stroke="none" stroke-width="1px">0.014</text><text x="0" y="0" dx="0em" dy="0.3em" style="text-anchor: end; visibility: hidden; font-family: Roboto, sans-serif; font-size: 12px; font-weight: 200;" fill="rgb(50, 49, 63)" stroke="none" stroke-width="1px">0.015</text></g><line x1="61.953125" y1="0" x2="61.953125" y2="178" fill="rgb(0, 0, 0)" stroke="rgb(204, 204, 204)" stroke-width="1px"></line></g></g><g transform="translate(61, 0)" clip-path="url(#clip_0)"><clipPath id="clip_0"><rect width="268" height="178"></rect></clipPath><g><g><g><line x1="0" y1="0" x2="0" y2="178" fill="rgb(0, 0, 0)" stroke="rgb(60, 60, 60)" stroke-width="1px" opacity="0.25"></line><line x1="19.146205357142858" y1="0" x2="19.146205357142858" y2="178" fill="rgb(0, 0, 0)" stroke="rgb(60, 60, 60)" stroke-width="1px" opacity="0.25"></line><line x1="38.292410714285715" y1="0" x2="38.292410714285715" y2="178" fill="rgb(0, 0, 0)" stroke="rgb(60, 60, 60)" stroke-width="1px" opacity="0.25"></line><line x1="57.43861607142857" y1="0" x2="57.43861607142857" y2="178" fill="rgb(0, 0, 0)" stroke="rgb(60, 60, 60)" stroke-width="1px" opacity="0.25"></line><line x1="76.58482142857143" y1="0" x2="76.58482142857143" y2="178" fill="rgb(0, 0, 0)" stroke="rgb(60, 60, 60)" stroke-width="1px" opacity="0.25"></line><line x1="95.73102678571429" y1="0" x2="95.73102678571429" y2="178" fill="rgb(0, 0, 0)" stroke="rgb(60, 60, 60)" stroke-width="1px" opacity="0.25"></line><line x1="114.87723214285714" y1="0" x2="114.87723214285714" y2="178" fill="rgb(0, 0, 0)" stroke="rgb(60, 60, 60)" stroke-width="1px" opacity="0.25"></line><line x1="134.0234375" y1="0" x2="134.0234375" y2="178" fill="rgb(0, 0, 0)" stroke="rgb(60, 60, 60)" stroke-width="1px" opacity="0.25"></line><line x1="153.16964285714286" y1="0" x2="153.16964285714286" y2="178" fill="rgb(0, 0, 0)" stroke="rgb(60, 60, 60)" stroke-width="1px" opacity="0.25"></line><line x1="172.31584821428572" y1="0" x2="172.31584821428572" y2="178" fill="rgb(0, 0, 0)" stroke="rgb(60, 60, 60)" stroke-width="1px" opacity="0.25"></line><line x1="191.46205357142858" y1="0" x2="191.46205357142858" y2="178" fill="rgb(0, 0, 0)" stroke="rgb(60, 60, 60)" stroke-width="1px" opacity="0.25"></line><line x1="210.60825892857142" y1="0" x2="210.60825892857142" y2="178" fill="rgb(0, 0, 0)" stroke="rgb(60, 60, 60)" stroke-width="1px" opacity="0.25"></line><line x1="229.75446428571428" y1="0" x2="229.75446428571428" y2="178" fill="rgb(0, 0, 0)" stroke="rgb(60, 60, 60)" stroke-width="1px" opacity="0.25"></line><line x1="248.90066964285714" y1="0" x2="248.90066964285714" y2="178" fill="rgb(0, 0, 0)" stroke="rgb(60, 60, 60)" stroke-width="1px" opacity="0.25"></line><line x1="268.046875" y1="0" x2="268.046875" y2="178" fill="rgb(0, 0, 0)" stroke="rgb(60, 60, 60)" stroke-width="1px" opacity="0.25"></line></g><g><line x1="0" y1="178" x2="268.046875" y2="178" fill="rgb(0, 0, 0)" stroke="rgb(60, 60, 60)" stroke-width="1px" opacity="0.25"></line><line x1="0" y1="164.30769230769232" x2="268.046875" y2="164.30769230769232" fill="rgb(0, 0, 0)" stroke="rgb(60, 60, 60)" stroke-width="1px" opacity="0.25"></line><line x1="0" y1="150.6153846153846" x2="268.046875" y2="150.6153846153846" fill="rgb(0, 0, 0)" stroke="rgb(60, 60, 60)" stroke-width="1px" opacity="0.25"></line><line x1="0" y1="136.9230769230769" x2="268.046875" y2="136.9230769230769" fill="rgb(0, 0, 0)" stroke="rgb(60, 60, 60)" stroke-width="1px" opacity="0.25"></line><line x1="0" y1="123.23076923076923" x2="268.046875" y2="123.23076923076923" fill="rgb(0, 0, 0)" stroke="rgb(60, 60, 60)" stroke-width="1px" opacity="0.25"></line><line x1="0" y1="109.53846153846155" x2="268.046875" y2="109.53846153846155" fill="rgb(0, 0, 0)" stroke="rgb(60, 60, 60)" stroke-width="1px" opacity="0.25"></line><line x1="0" y1="95.84615384615384" x2="268.046875" y2="95.84615384615384" fill="rgb(0, 0, 0)" stroke="rgb(60, 60, 60)" stroke-width="1px" opacity="0.25"></line><line x1="0" y1="82.15384615384616" x2="268.046875" y2="82.15384615384616" fill="rgb(0, 0, 0)" stroke="rgb(60, 60, 60)" stroke-width="1px" opacity="0.25"></line><line x1="0" y1="68.46153846153845" x2="268.046875" y2="68.46153846153845" fill="rgb(0, 0, 0)" stroke="rgb(60, 60, 60)" stroke-width="1px" opacity="0.25"></line><line x1="0" y1="54.769230769230774" x2="268.046875" y2="54.769230769230774" fill="rgb(0, 0, 0)" stroke="rgb(60, 60, 60)" stroke-width="1px" opacity="0.25"></line><line x1="0" y1="41.076923076923066" x2="268.046875" y2="41.076923076923066" fill="rgb(0, 0, 0)" stroke="rgb(60, 60, 60)" stroke-width="1px" opacity="0.25"></line><line x1="0" y1="27.384615384615387" x2="268.046875" y2="27.384615384615387" fill="rgb(0, 0, 0)" stroke="rgb(60, 60, 60)" stroke-width="1px" opacity="0.25"></line><line x1="0" y1="13.692307692307683" x2="268.046875" y2="13.692307692307683" fill="rgb(0, 0, 0)" stroke="rgb(60, 60, 60)" stroke-width="1px" opacity="0.25"></line><line x1="0" y1="0" x2="268.046875" y2="0" fill="rgb(0, 0, 0)" stroke="rgb(60, 60, 60)" stroke-width="1px" opacity="0.25"></line></g></g></g><g><g><line x1="0" y1="205.38461538461536" x2="268.046875" y2="205.38461538461536" fill="rgb(0, 0, 0)" stroke="rgb(153, 153, 153)" stroke-width="1.5px"></line></g></g><g><g><line x1="19.146205357142858" y1="0" x2="19.146205357142858" y2="178" fill="rgb(0, 0, 0)" stroke="rgb(153, 153, 153)" stroke-width="1.5px"></line></g></g><g><g><g><g><g><path stroke="rgb(255, 112, 67)" stroke-width="2px" d="M19.146205357142858,40.70994588044974L20.103515625,59.75191715757855L21.060825892857142,60.287057207096304L22.018136160714285,62.02099577386716L22.975446428571427,61.938807271889516L23.932756696428573,60.542029090451386L24.890066964285715,59.588544372634814L25.847377232142858,58.23700369248933L26.8046875,55.44645652210763L27.761997767857146,52.216202167288834L28.719308035714285,50.01896639211952L29.676618303571427,46.78861654807029L30.63392857142857,43.642196788845645L31.591238839285715,40.91184059020799L32.548549107142854,36.48537907445899L33.505859375,32.885724635974235L34.46316964285714,25.31091281392186L35.420479910714285,18.689897743519854L36.37779017857142,14.82368411693434L37.33510044642857,10.379960285151025L38.292410714285715,7.8226413895792195L39.24972098214286,6.071352210396775L40.20703125,4.220649842140791L41.164341517857146,2.7759439065677007L42.121651785714285,3.598603109591673L43.07896205357143,4.256704116584572L44.03627232142857,4.762999862223819L44.99358258928571,5.883750432543764L45.950892857142854,5.615551513457183L46.908203125,6.146661656059836L47.865513392857146,8.188027741755938L48.822823660714285,10.068697383401311L49.78013392857143,11.974126357847402L50.73744419642857,13.572807704268447L51.694754464285715,15.431141160523735L52.652064732142854,18.40281054372984L53.609375,20.88707204779829L54.566685267857146,23.880649401277385L55.52399553571429,27.29896895992677L56.48130580357143,30.12707182687431L57.43861607142857,32.271827109343796L58.395926339285715,33.53384160528346L59.353236607142854,35.297123251586086L60.310546875,37.14432275913166L61.26785714285714,40.42109632629504L62.225167410714285,43.347788306237916L63.18247767857143,45.87598762746817L64.13978794642857,47.18083529756136L65.09709821428571,48.84349060564366L66.05440848214286,50.99689523688697L67.01171875,52.65914373998663L67.96902901785714,54.03669839047931L68.92633928571428,57.78345086446452L69.88364955357143,58.87922832853368L70.84095982142857,61.83346362551033L71.79827008928571,62.87953756252493L72.75558035714285,64.64124644965672L73.712890625,67.01324113992824L74.67020089285714,68.77890672549923L75.62751116071429,71.1368404689091L76.58482142857143,73.26219655556436L77.54213169642858,74.14811697716537L78.49944196428572,76.22602784244216L79.45675223214286,78.80333313980314L80.4140625,80.95500294802818L81.37137276785714,82.48991936836309L82.32868303571429,82.6880494520979L83.28599330357143,83.92765491657379L84.24330357142857,85.3118237862118L85.20061383928571,86.51712598399638L86.15792410714286,86.91338929417503L87.115234375,88.69243779914686L88.07254464285714,89.87187226787454L89.02985491071428,91.93358927528635L89.98716517857142,92.73063379608013L90.94447544642857,94.87031863392653L91.90178571428571,96.0250915049837L92.85909598214286,98.54170417703735L93.81640625,99.39054494348022L94.77371651785715,101.43763797110473L95.73102678571429,102.85041038895743L96.68833705357143,104.36014992736582L97.64564732142857,104.72553644131969L98.60295758928572,105.71240278651419L99.56026785714286,107.08413452657354L100.517578125,108.64268984040648L101.47488839285714,109.9014758312787L102.43219866071428,110.71310881387636L103.38950892857143,111.60402076360513L104.34681919642857,112.347015792788L105.30412946428571,114.51029839638338L106.26143973214285,114.7935509163115L107.21875,114.31770197567106L108.17606026785714,115.55312896823163L109.13337053571429,115.64941053270572L110.09068080357143,115.90075554889671L111.04799107142858,116.73741290597967L112.00530133928572,117.87308917269847L112.96261160714286,117.49334796447066L113.919921875,118.3094103220032L114.87723214285714,118.70027818145597L115.83454241071429,118.34565282106996L116.79185267857143,118.62019381029499L117.74916294642857,118.50460967572623L118.70647321428571,119.43270489002782L119.66378348214286,120.21395319439728L120.62109375,119.5434981154756L121.57840401785714,119.84263860570638L122.53571428571428,120.25852168038774L123.49302455357142,121.2266930802539L124.45033482142857,121.6641867097724L125.40764508928571,123.08676447607647L126.36495535714286,124.6691942376946L127.322265625,125.2686406382206L128.27957589285714,126.84559226371233L129.23688616071428,127.2089213370577L130.19419642857142,128.0361307638103L131.15150669642856,128.81061509559916L132.10881696428572,129.26217247536275L133.06612723214286,129.49668072300764L134.0234375,130.3225682978184L134.98074776785714,132.1268435880385L135.93805803571428,133.06258312567144L136.89536830357142,133.6221146311623L137.85267857142856,134.70297105032842L138.80998883928572,134.01008774636045L139.76729910714286,134.3848202510721L140.724609375,134.76779840646466L141.68191964285714,134.68456521059352L142.63922991071428,134.59359807396055L143.59654017857142,135.24234786144288L144.55385044642856,135.56815397788L145.5111607142857,136.13427085501746L146.46847098214283,136.02350254170963L147.42578125,137.5663545427582L148.38309151785714,138.68795242986215L149.34040178571428,139.58402481989287L150.29771205357142,140.10180715071743L151.25502232142858,140.49922031634568L152.21233258928572,140.67318420499333L153.16964285714286,139.9542372026898L154.126953125,140.5034322243771L155.08426339285717,140.82293127479403L156.0415736607143,140.5631657047829L156.99888392857144,140.2391145186977L157.95619419642858,140.10423848568595L158.91350446428572,140.75871104445906L159.87081473214286,142.20259184312465L160.828125,143.26983088762938L161.78543526785714,143.68832438343745L162.74274553571428,144.1394507857925L163.70005580357144,145.2664961915472L164.65736607142858,145.61231411816485L165.61467633928572,146.63289407893237L166.57198660714286,146.93910821054658L167.529296875,146.55267228004232L168.48660714285714,147.27511751085945L169.44391741071428,148.30318289471842L170.40122767857142,148.56187563276066L171.35853794642856,149.1366316328457L172.31584821428572,149.9567591824061L173.27315848214286,149.39472409357373L174.23046875,149.71946022852896L175.18777901785714,150.29165463470613L176.14508928571428,150.9493121845985L177.10239955357142,151.36864578832234L178.05970982142856,151.6000712065569L179.0170200892857,151.69941699519427L179.97433035714283,152.01240537096535L180.931640625,152.79983714298902L181.88895089285714,153.42245736845155L182.84626116071428,153.8926608387403L183.80357142857142,154.68031174267287L184.76088169642858,155.16497673475587L185.71819196428572,155.38301828081032L186.67550223214286,155.66463511380448L187.6328125,156.20922250453845L188.59012276785717,157.10158863317537L189.5474330357143,156.87545682485313L190.50474330357144,157.59218432896725L191.46205357142858,158.05575421017596L192.41936383928572,158.05137693981382L193.37667410714286,158.3796589873066L194.333984375,158.10908063188083L195.29129464285714,157.9155892208089L196.24860491071428,158.36015492538525L197.20591517857144,159.09596533937412L198.16322544642858,159.0138643568281L199.12053571428572,158.9629623787575L200.07784598214286,158.7963965956063L201.03515625,159.12740634332914L201.99246651785714,158.94732465028636L202.94977678571428,159.55179506787414L203.90708705357142,160.09947921109267L204.86439732142856,160.60834667949442L205.82170758928572,160.48837021361433L206.77901785714286,160.69025370571646L207.736328125,160.9723889866067L208.69363839285714,160.58641698669504L209.65094866071428,160.19337456585095L210.60825892857142,160.59522289141367L211.56556919642856,160.9720357072202L212.5228794642857,161.6961787377688L213.48018973214283,162.3037589208919L214.4375,162.54577556230785L215.39481026785714,162.85284466239708L216.35212053571428,163.26545001761392L217.30943080357142,163.2540413934771L218.26674107142858,163.5913524009695L219.22405133928572,163.88617522122226L220.18136160714286,163.1789741835424L221.138671875,163.65791283299112L222.09598214285717,164.2996792148766L223.0532924107143,164.66420897136086L224.01060267857144,164.42400124225617L224.96791294642858,164.41557264785595L225.92522321428572,164.98676054360376L226.88253348214286,165.09483704277972L227.83984375,165.1242297846118L228.79715401785714,165.02503473035952L229.75446428571428,164.58291130447662L230.71177455357144,165.6727233395593L231.66908482142858,165.58246612278103L232.62639508928572,166.05403348189992L233.58370535714286,166.18628565229315L234.541015625,166.450631337318L235.49832589285714,167.04880463646566L236.45563616071428,167.28244562135055L237.41294642857142,167.27947953002388L238.37025669642856,166.94019764141817L239.32756696428572,167.56278810427386L240.28487723214286,168.2655480218519L241.2421875,168.96526153095672L242.19949776785714,169.54046772091792L243.15680803571428,169.99247370875426L244.11411830357142,169.579681285423L245.07142857142856,169.47202391133993L246.0287388392857,169.207164476475L246.98604910714283,169.15173149154728L247.943359375,169.11191808135413L248.90066964285714,169.49602734537854L249.85797991071428,169.50617934005436L250.81529017857142,168.9663817611106L251.77260044642858,169.51864737775597L252.72991071428572,169.20540519886907L253.68722098214286,169.68051471260893L254.64453125,170.05920028141344L255.60184151785717,170.09386197565783L256.5591517857143,169.75747378275528L257.51646205357144,170.29422642967043" style="fill: none;" fill="none"></path></g></g></g></g><g opacity="0.2"><g><g><g><path stroke="rgb(255, 112, 67)" stroke-width="2px" d="M19.146205357142858,40.70994588044974L20.103515625,76.88969130699451L21.060825892857142,61.202146691771645L22.018136160714285,66.25007193822125L22.975446428571427,61.68442563941844L23.932756696428573,55.39407739272483L24.890066964285715,55.56766975957613L25.847377232142858,51.89107702901729L26.8046875,41.14268348194085L27.761997767857146,34.407113469563996L28.719308035714285,37.139003099157264L29.676618303571427,26.83893004289039L30.63392857142857,23.322195823375985L31.591238839285715,22.58481401090438L32.548549107142854,5.760917159227211L33.505859375,7.159067037013847L34.46316964285714,-30.229742274834564L41.164341517857146,-9.074018975863105L42.121651785714285,10.411950550400292L43.07896205357143,9.754408729764126L44.03627232142857,9.025251928430327L44.99358258928571,15.383963407232194L45.950892857142854,3.328086384213889L46.908203125,10.701509198317156L47.865513392857146,25.78149965749336L48.822823660714285,26.348961666226387L49.78013392857143,28.534149470237573L50.73744419642857,27.516301153944084L51.694754464285715,31.690972504707478L52.652064732142854,44.47836544078129L53.609375,42.741727662774224L54.566685267857146,50.27657747841798L55.52399553571429,57.50244741829542L56.48130580357143,55.16197905517541L57.43861607142857,51.289312260655244L58.395926339285715,44.74087719160776L59.353236607142854,50.97665982177623L60.310546875,53.589981771432434L61.26785714285714,69.62606282761462L62.225167410714285,69.45811957694016L63.18247767857143,68.45104666283495L64.13978794642857,58.841440975666046L65.09709821428571,63.71217780388318L66.05440848214286,70.2665552840783L67.01171875,67.54227857177074L67.96902901785714,66.37718342817746L68.92633928571428,91.36345381347033L69.88364955357143,68.70417297459565L70.84095982142857,88.33167645220573L71.79827008928571,72.2655517894488L72.75558035714285,80.45319969837482L73.712890625,88.30856990928834L74.67020089285714,84.63464233737724L75.62751116071429,92.31587184736361L76.58482142857143,92.35602775445352L77.54213169642858,82.10850550578189L78.49944196428572,94.900004571447L79.45675223214286,101.96869391088302L80.4140625,100.29719949628299L81.37137276785714,96.28950862357249L82.32868303571429,84.46951726881358L83.28599330357143,95.07451507907646L84.24330357142857,97.75970704853535L85.20061383928571,97.35729359663449L86.15792410714286,90.47752447426319L87.115234375,104.69484516061269L88.07254464285714,100.48139511392668L89.02985491071428,110.48056665807962L89.98716517857142,99.90108551027683L90.94447544642857,114.12035724577996L91.90178571428571,106.41458659791027L92.85909598214286,121.18443037741457L93.81640625,107.02805128521643L94.77371651785715,119.8570028434579L95.73102678571429,115.5625842568966L96.68833705357143,117.94513407234962L97.64564732142857,108.01343312343727L98.60295758928572,114.59278530799423L99.56026785714286,119.42795055703476L100.517578125,122.66787808388472L101.47488839285714,121.22923437219401L102.43219866071428,118.01704234801804L103.38950892857143,119.62147422994559L104.34681919642857,119.03340506152466L105.30412946428571,133.97835869055527L106.26143973214285,117.34264881851581L107.21875,110.0353257644635L108.17606026785714,126.67135443538427L109.13337053571429,116.51590130363519L110.09068080357143,118.16275894068752L111.04799107142858,124.26702428036009L112.00530133928572,128.0938031639044L112.96261160714286,114.07578916217273L113.919921875,125.65375478221819L114.87723214285714,122.2179954785567L115.83454241071429,115.15410087429558L116.79185267857143,121.09100955323532L117.74916294642857,117.46437260737787L118.70647321428571,127.78541625405734L119.66378348214286,127.24507765414623L120.62109375,113.5094875813677L121.57840401785714,122.53486881462428L122.53571428571428,124.00142655636256L123.49302455357142,129.9401460129481L124.45033482142857,125.60159290925816L125.40764508928571,135.88985765496125L126.36495535714286,138.91095525370196L127.322265625,130.66362181821694L128.27957589285714,141.03807065349358L129.23688616071428,130.47886511454215L130.19419642857142,135.48097896174744L131.15150669642856,135.78094320515027L132.10881696428572,133.32617269112512L133.06612723214286,131.60724737896368L134.0234375,137.75553246816764L134.98074776785714,148.36527400578444L135.93805803571428,141.48421693593264L136.89536830357142,138.6578863257399L137.85267857142856,144.43065821264798L138.80998883928572,127.77414990159181L139.76729910714286,137.75740700558976L140.724609375,138.2145964812774L141.68191964285714,133.93546748906374L142.63922991071428,133.77489486852517L143.59654017857142,141.08108937453764L144.55385044642856,138.50040605435004L145.5111607142857,141.22931810239186L146.46847098214283,135.0265885402377L147.42578125,151.452012294187L148.38309151785714,148.78232670231506L149.34040178571428,147.64867150439665L150.29771205357142,144.7618456184864L151.25502232142858,144.07593707339123L152.21233258928572,142.2388585198384L153.16964285714286,133.48371672229126L154.126953125,145.44618567308555L155.08426339285717,143.69842181412074L156.0415736607143,138.2252762438013L156.99888392857144,137.32265459516873L157.95619419642858,138.89035446999165L158.91350446428572,146.64896284444973L159.87081473214286,155.19751659092995L160.828125,152.87498066488365L161.78543526785714,147.45476527282824L162.74274553571428,148.19958785118965L163.70005580357144,155.40990359364793L164.65736607142858,148.72467511261885L165.61467633928572,155.81811280921102L166.57198660714286,149.6950351475523L167.529296875,143.07474918663502L168.48660714285714,153.77712411519425L169.44391741071428,157.55577074363828L170.40122767857142,150.89011013794402L171.35853794642856,154.30943535927395L172.31584821428572,157.33790677613936L173.27315848214286,144.3364085113773L174.23046875,152.64208533013095L175.18777901785714,155.44140411111024L176.14508928571428,156.86822994827077L177.10239955357142,155.14264811546758L178.05970982142856,153.68289991783408L179.0170200892857,152.59352907251852L179.97433035714283,154.82930069502729L180.931640625,159.88672296015116L181.88895089285714,159.026039304355L182.84626116071428,158.12449200795248L183.80357142857142,161.7691697825033L184.76088169642858,159.52696161058086L185.71819196428572,157.34539217387254L186.67550223214286,158.19918658584356L187.6328125,161.11050897779373L188.59012276785717,165.13288372697738L189.5474330357143,154.8402705645332L190.50474330357144,164.04273182440264L191.46205357142858,162.2278831168436L192.41936383928572,158.0119815067603L193.37667410714286,161.33419740085418L194.333984375,155.67387544335082L195.29129464285714,156.17416652779167L196.24860491071428,162.36124625286232L197.20591517857144,165.71825904485124L198.16322544642858,158.27495551596468L199.12053571428572,158.50484457726662L200.07784598214286,157.29730455061565L201.03515625,162.10649406680693L201.99246651785714,157.32658941585285L202.94977678571428,164.9920288172479L203.90708705357142,165.0286364927888L204.86439732142856,165.18815388903022L205.82170758928572,159.40858202198376L206.77901785714286,162.50720513268158L207.736328125,163.5116065121614L208.69363839285714,157.11266899051574L209.65094866071428,156.655992781027L210.60825892857142,164.21185781892675L211.56556919642856,164.36335104732558L212.5228794642857,168.21346600898184L213.48018973214283,167.77198056618755L214.4375,164.72392533404323L215.39481026785714,165.61646656204874L216.35212053571428,166.97889821317332L217.30943080357142,163.15136377628033L218.26674107142858,166.6271514674792L219.22405133928572,166.53958060277196L220.18136160714286,156.8141648459893L221.138671875,167.96836067707494L222.09598214285717,170.07557665069515L223.0532924107143,167.9449767791308L224.01060267857144,162.2621316806628L224.96791294642858,164.33971529826522L225.92522321428572,170.12745160466204L226.88253348214286,166.0675255352488L227.83984375,165.38876446107258L228.79715401785714,164.13227924217398L229.75446428571428,160.6038004718721L230.71177455357144,175.4810316545459L231.66908482142858,164.77015117183328L232.62639508928572,170.2981397137046L233.58370535714286,167.37655518576503L234.541015625,168.82974250242114L235.49832589285714,172.43236432854945L236.45563616071428,169.38521448522806L237.41294642857142,167.25278470808496L238.37025669642856,163.88666064406817L239.32756696428572,173.16610226980768L240.28487723214286,174.59038727988417L241.2421875,175.2626831127474L242.19949776785714,174.71732343045565L243.15680803571428,174.06052759920175L244.11411830357142,165.8645494755071L245.07142857142856,168.50310754460784L246.0287388392857,166.82342956272456L246.98604910714283,168.65283462720421L247.943359375,168.7535973896201L248.90066964285714,172.953010721562L249.85797991071428,169.59754729213623L250.81529017857142,164.1082035506574L251.77260044642858,174.48903792752668L252.72991071428572,166.38622558890626L253.68722098214286,173.95650033624128L254.64453125,173.4673704006351L255.60184151785717,170.40581722385608L256.5591517857143,166.72998004664595L257.51646205357144,175.12500025188695" style="fill: none;" fill="none"></path></g></g></g></g></g></g><g transform="translate(61, 178)" clip-path="url(#clip_1)"><clipPath id="clip_1"><rect width="268" height="22"></rect></clipPath><g><g><line x1="0" y1="0" x2="0" y2="5" style="visibility: inherit;" fill="rgb(0, 0, 0)" stroke="rgb(204, 204, 204)" stroke-width="1px"></line><line x1="19.146205357142858" y1="0" x2="19.146205357142858" y2="5" style="visibility: inherit;" fill="rgb(0, 0, 0)" stroke="rgb(204, 204, 204)" stroke-width="1px"></line><line x1="38.292410714285715" y1="0" x2="38.292410714285715" y2="5" style="visibility: inherit;" fill="rgb(0, 0, 0)" stroke="rgb(204, 204, 204)" stroke-width="1px"></line><line x1="57.43861607142857" y1="0" x2="57.43861607142857" y2="5" style="visibility: inherit;" fill="rgb(0, 0, 0)" stroke="rgb(204, 204, 204)" stroke-width="1px"></line><line x1="76.58482142857143" y1="0" x2="76.58482142857143" y2="5" style="visibility: inherit;" fill="rgb(0, 0, 0)" stroke="rgb(204, 204, 204)" stroke-width="1px"></line><line x1="95.73102678571429" y1="0" x2="95.73102678571429" y2="5" style="visibility: inherit;" fill="rgb(0, 0, 0)" stroke="rgb(204, 204, 204)" stroke-width="1px"></line><line x1="114.87723214285714" y1="0" x2="114.87723214285714" y2="5" style="visibility: inherit;" fill="rgb(0, 0, 0)" stroke="rgb(204, 204, 204)" stroke-width="1px"></line><line x1="134.0234375" y1="0" x2="134.0234375" y2="5" style="visibility: inherit;" fill="rgb(0, 0, 0)" stroke="rgb(204, 204, 204)" stroke-width="1px"></line><line x1="153.16964285714286" y1="0" x2="153.16964285714286" y2="5" style="visibility: inherit;" fill="rgb(0, 0, 0)" stroke="rgb(204, 204, 204)" stroke-width="1px"></line><line x1="172.31584821428572" y1="0" x2="172.31584821428572" y2="5" style="visibility: inherit;" fill="rgb(0, 0, 0)" stroke="rgb(204, 204, 204)" stroke-width="1px"></line><line x1="191.46205357142858" y1="0" x2="191.46205357142858" y2="5" style="visibility: inherit;" fill="rgb(0, 0, 0)" stroke="rgb(204, 204, 204)" stroke-width="1px"></line><line x1="210.60825892857142" y1="0" x2="210.60825892857142" y2="5" style="visibility: inherit;" fill="rgb(0, 0, 0)" stroke="rgb(204, 204, 204)" stroke-width="1px"></line><line x1="229.75446428571428" y1="0" x2="229.75446428571428" y2="5" style="visibility: inherit;" fill="rgb(0, 0, 0)" stroke="rgb(204, 204, 204)" stroke-width="1px"></line><line x1="248.90066964285714" y1="0" x2="248.90066964285714" y2="5" style="visibility: inherit;" fill="rgb(0, 0, 0)" stroke="rgb(204, 204, 204)" stroke-width="1px"></line><line x1="268.046875" y1="0" x2="268.046875" y2="5" style="visibility: inherit;" fill="rgb(0, 0, 0)" stroke="rgb(204, 204, 204)" stroke-width="1px"></line></g><g transform="translate(0, 8)"><text x="0" y="0" dx="0em" dy="0.95em" style="text-anchor: middle; visibility: hidden; font-family: Roboto, sans-serif; font-size: 12px; font-weight: 200;" fill="rgb(50, 49, 63)" stroke="none" stroke-width="1px">-20</text><text x="19.146205357142858" y="0" dx="0em" dy="0.95em" style="text-anchor: middle; visibility: inherit; font-family: Roboto, sans-serif; font-size: 12px; font-weight: 200;" fill="rgb(50, 49, 63)" stroke="none" stroke-width="1px">0</text><text x="38.292410714285715" y="0" dx="0em" dy="0.95em" style="text-anchor: middle; visibility: hidden; font-family: Roboto, sans-serif; font-size: 12px; font-weight: 200;" fill="rgb(50, 49, 63)" stroke="none" stroke-width="1px">20</text><text x="57.43861607142857" y="0" dx="0em" dy="0.95em" style="text-anchor: middle; visibility: inherit; font-family: Roboto, sans-serif; font-size: 12px; font-weight: 200;" fill="rgb(50, 49, 63)" stroke="none" stroke-width="1px">40</text><text x="76.58482142857143" y="0" dx="0em" dy="0.95em" style="text-anchor: middle; visibility: hidden; font-family: Roboto, sans-serif; font-size: 12px; font-weight: 200;" fill="rgb(50, 49, 63)" stroke="none" stroke-width="1px">60</text><text x="95.73102678571429" y="0" dx="0em" dy="0.95em" style="text-anchor: middle; visibility: inherit; font-family: Roboto, sans-serif; font-size: 12px; font-weight: 200;" fill="rgb(50, 49, 63)" stroke="none" stroke-width="1px">80</text><text x="114.87723214285714" y="0" dx="0em" dy="0.95em" style="text-anchor: middle; visibility: hidden; font-family: Roboto, sans-serif; font-size: 12px; font-weight: 200;" fill="rgb(50, 49, 63)" stroke="none" stroke-width="1px">100</text><text x="134.0234375" y="0" dx="0em" dy="0.95em" style="text-anchor: middle; visibility: inherit; font-family: Roboto, sans-serif; font-size: 12px; font-weight: 200;" fill="rgb(50, 49, 63)" stroke="none" stroke-width="1px">120</text><text x="153.16964285714286" y="0" dx="0em" dy="0.95em" style="text-anchor: middle; visibility: hidden; font-family: Roboto, sans-serif; font-size: 12px; font-weight: 200;" fill="rgb(50, 49, 63)" stroke="none" stroke-width="1px">140</text><text x="172.31584821428572" y="0" dx="0em" dy="0.95em" style="text-anchor: middle; visibility: inherit; font-family: Roboto, sans-serif; font-size: 12px; font-weight: 200;" fill="rgb(50, 49, 63)" stroke="none" stroke-width="1px">160</text><text x="191.46205357142858" y="0" dx="0em" dy="0.95em" style="text-anchor: middle; visibility: hidden; font-family: Roboto, sans-serif; font-size: 12px; font-weight: 200;" fill="rgb(50, 49, 63)" stroke="none" stroke-width="1px">180</text><text x="210.60825892857142" y="0" dx="0em" dy="0.95em" style="text-anchor: middle; visibility: inherit; font-family: Roboto, sans-serif; font-size: 12px; font-weight: 200;" fill="rgb(50, 49, 63)" stroke="none" stroke-width="1px">200</text><text x="229.75446428571428" y="0" dx="0em" dy="0.95em" style="text-anchor: middle; visibility: hidden; font-family: Roboto, sans-serif; font-size: 12px; font-weight: 200;" fill="rgb(50, 49, 63)" stroke="none" stroke-width="1px">220</text><text x="248.90066964285714" y="0" dx="0em" dy="0.95em" style="text-anchor: middle; visibility: inherit; font-family: Roboto, sans-serif; font-size: 12px; font-weight: 200;" fill="rgb(50, 49, 63)" stroke="none" stroke-width="1px">240</text><text x="268.046875" y="0" dx="0em" dy="0.95em" style="text-anchor: middle; visibility: hidden; font-family: Roboto, sans-serif; font-size: 12px; font-weight: 200;" fill="rgb(50, 49, 63)" stroke="none" stroke-width="1px">260</text></g><line x1="0" y1="0" x2="268.046875" y2="0" fill="rgb(0, 0, 0)" stroke="rgb(204, 204, 204)" stroke-width="1px"></line></g></g></g></g></svg>